<?xml version="1.0" encoding="UTF-8" standalone="no"?>
<!-- Created with Inkscape (http://www.inkscape.org/) -->

<svg
   xmlns:dc="http://purl.org/dc/elements/1.1/"
   xmlns:cc="http://creativecommons.org/ns#"
   xmlns:rdf="http://www.w3.org/1999/02/22-rdf-syntax-ns#"
   xmlns:svg="http://www.w3.org/2000/svg"
   xmlns="http://www.w3.org/2000/svg"
   xmlns:sodipodi="http://sodipodi.sourceforge.net/DTD/sodipodi-0.dtd"
   xmlns:inkscape="http://www.inkscape.org/namespaces/inkscape"
   id="svg4136"
   version="1.1"
   inkscape:version="0.91 r13725"
   width="14973.487"
   height="7337.4712"
   viewBox="0 0 14973.487 7337.4712"
   sodipodi:docname="world_map_v04.svg">
  <metadata
     id="metadata4142">
    <rdf:RDF>
      <cc:Work
         rdf:about="">
        <dc:format>image/svg+xml</dc:format>
        <dc:type
           rdf:resource="http://purl.org/dc/dcmitype/StillImage" />
        <dc:title></dc:title>
      </cc:Work>
    </rdf:RDF>
  </metadata>
  <defs
     id="defs4140" />
  <sodipodi:namedview
     pagecolor="#ffffff"
     bordercolor="#666666"
     borderopacity="1"
     objecttolerance="10"
     gridtolerance="10"
     guidetolerance="10"
     inkscape:pageopacity="0"
     inkscape:pageshadow="2"
     inkscape:window-width="1920"
     inkscape:window-height="1138"
     id="namedview4138"
     showgrid="true"
     inkscape:zoom="0.58527806"
     inkscape:cx="516.26681"
     inkscape:cy="-427.23994"
     inkscape:window-x="-8"
     inkscape:window-y="-8"
     inkscape:window-maximized="1"
     inkscape:current-layer="svg4136"
     showguides="true"
     fit-margin-top="0"
     fit-margin-left="0"
     fit-margin-right="0"
     fit-margin-bottom="0"
     borderlayer="true"
     inkscape:showpageshadow="true">
    <inkscape:grid
       type="xygrid"
       id="grid4221"
       originx="7277.9601"
       originy="3458.07"
       dotted="false" />
  </sodipodi:namedview>
  <path
     style="fill:#aa8800"
     d="m -381.43393,7833.0301 c -37.589,-18.1049 -84.349,-32.997 -103.911,-33.0937 -46.263,-0.2288 -120.649,-50.9012 -150.817,-102.7377 -13.111,-22.5279 -31.527,-94.3424 -40.926,-159.5879 l -17.088,-118.6282 52.332,-100.0712 c 28.782,-55.0392 78.492,-133.9014 110.466,-175.2493 31.974,-41.3478 68.186,-95.1684 80.47,-119.6013 18.715,-37.2231 29.981,-44.4233 69.51,-44.4233 35.236,0 52.84,-8.6477 69.564,-34.1718 l 22.39,-34.1718 512.917,0 512.918,0 -7.516,71.7608 c -7.113,67.9189 -14.283,91.9101 -73.011,244.3078 -23.235,60.2939 -23.26,66.8875 -0.54,143.5215 20.853,70.3352 21.54,87.9734 5.525,141.8334 l -18.289,61.5093 -237.368,6.8343 -237.369,6.8344 -33.776,119.3133 c -32.348,114.2673 -35.579998,119.5618 -76.432998,125.1857 -23.461,3.2297 -87.364001,12.5856 -142.008001,20.7909 -147.149001,22.096 -219.513001,17.1858 -297.040001,-20.1552 z"
     id="path4184"
     inkscape:connector-curvature="0" />
  <path
     style="fill:#aa8800"
     d="m 21.454072,7969.7296 c -7.331,-19.2838 -13.3300007,-50.236 -13.3300007,-68.7825 0,-40.1597 -32.1140003,-121.415 -53.1160003,-134.395 -8.195,-5.0645 -47.265,-17.9647 -86.824001,-28.667 -39.559,-10.7023 -84.754,-23.14 -100.434,-27.6392 -19.366,-5.5569 -42.456,3.5548 -71.996,28.4116 -44.985,37.8523 -61.745,38.9604 -189.611,12.5358 -36.806,-7.6064 -61.828,1.2959 -151.65,53.9551 -75.387,44.1963 -115.27,77.3614 -133.305,110.8505 -14.154,26.2824 -29.734,47.7862 -34.622,47.7862 -15.419,0 -35.446,-32.4242 -52.237,-84.5754 -22.87,-71.0351 -65.418,-120.4553 -103.704,-120.4553 -17.805,0 -36.17397,6.1509 -40.81997,13.6687 -16.03,25.9366 -48.559,13.5591 -62.799,-23.8952 -7.855,-20.6602 -24.034,-48.3394 -35.952,-61.5093 -20.401,-22.5429 -17.2,-23.9452 54.656,-23.9452 l 76.32697,0 22.399,-78.5952 c 12.319,-43.2273 28.837,-100.7615 36.706,-127.8539 l 14.307,-49.2588 152.209,-8.7711 c 83.714,-4.8241 190.413,-8.799 237.108,-8.8332 l 84.9,-0.062 21.038,-70.8437 c 19.182,-64.5914 19.025,-78.0214 -1.781,-152.1726 -19.088,-68.029 -19.999,-88.2964 -5.571,-123.9355 53.884,-133.0949 69.37,-184.3188 77.531,-256.4519 l 9.054,-80.0321 84.779,0 c 115.154,0 242.0860013,42.4752 371.335,124.2592 104.514,66.1323 259.78,124.1443 384.1,143.5106 41.676,6.4924 71.78,2.3658 107.95,-14.7979 27.586,-13.0905 93.843,-30.3366 147.237,-38.3248 74.477,-11.1423 107.816,-23.7469 143.187,-54.1359 47.35598,-40.6868 107.45003,-73.6414 116.03603,-63.6333 2.66,3.1006 2.024,28.1721 -1.415,55.7144 -5.578,44.6768 -14.581,54.5211 -83.49005,91.2906 -42.47998,22.6675 -95.43298,60.2397 -117.67098,83.4937 -22.239,23.254 -74.01,57.6515 -115.048,76.439 -41.037,18.7874 -105.879,60.3903 -144.093,92.4508 -38.214,32.0606 -85.549,68.4238 -105.188,80.8072 -27.627,17.4196 -37.315,36.7687 -42.807,85.4964 -8.468,75.126 -31.587,103.24 -132.267,160.843 -41.749,23.8863 -109.225,75.7005 -149.946,115.1427 l -74.039998,71.7131 7.544,127.0437 c 4.149,69.8741 4.582,134.7324 0.962,144.1296 -10.692,27.7585 -31.353,19.6227 -45.648,-17.9757 z"
     id="path4186"
     inkscape:connector-curvature="0" />
  <path
     style="fill:#aa8800"
     d="m -545.60293,6788.2764 c -30.403,0 -34.027,5.6405 -34.027,52.9551 0,29.126 9.225,79.1068 20.502,111.0684 11.276,31.9615 20.504,73.1256 20.504,91.4765 0,18.3509 15.377,53.5272 34.171,78.168 18.795,24.6408 34.172,57.3794 34.172,72.7519 0,15.3726 12.816,42.4709 28.481,60.2188 31.034,35.1614 31.287,37.0868 -9.225,-70.2461 -9.931,-26.3123 -18.326,-58.7912 -18.656,-72.1738 -0.33,-13.3827 -16.325,-61.6905 -35.543,-107.3516 -38.689,-91.9208 -39.264,-144.8813 -1.818,-167.6484 20.346,-12.3706 30.679,-8.2262 58.091,23.3027 18.339,21.0932 33.375,51.8479 33.412,68.3438 0.04,16.4958 21.565,71.8845 47.84,123.0859 26.276,51.2014 47.774,98.8627 47.774,105.9141 0,7.0513 29.216,50.4412 64.926,96.4218 61.836,79.6221 64.971,87.8403 65.841,172.6485 1.089,106.0282 -4.802,100.1344 204.116002,204.2812 143.557998,71.5651 153.950998,74.5968 229.860998,67.0508 79.298,-7.8828 79.72,-7.7276 163.383,59.9668 60.988,49.3477 104.152,72.4059 158.168,84.4941 83.243,18.629 81.435,17.127 145.459,120.7793 76.95,124.5806 88.794,137.0431 162.095,170.5567 87.06798,39.8076 107.98898,41.2388 136.83203,9.3672 21.71,-23.9887 20.216,-25.0542 -33.55805,-23.92 -50.537,1.066 -61.564,-5.0915 -108.02598,-60.3222 l -51.742,-61.5098 17.531,-108.8418 c 9.643,-59.8637 14.495,-116.7596 10.782,-126.4355 -4.592,-11.9653 -36.578,-17.5938 -99.994,-17.5938 -126.786,0 -145.332,-17.9953 -109.854,-106.5996 14.151,-35.3426 38.592,-96.5511 54.311,-136.0195 l 28.58,-71.7598 -52.006,0 c -57.044,0 -81.444,14.9946 -116.481,71.584 -28.888,46.6595 -116.365,92.4394 -176.634,92.4394 -34.74,0 -57.481,-12.2168 -95.412,-51.2578 -27.391,-28.1917 -56.318,-68.5729 -64.284,-89.7363 -20.704,-55.0084 -17.885,-144.8633 6.821,-217.3691 20.959,-61.5116 20.755,-63.0707 -12.62,-96.4453 -18.657,-18.6577 -41.489,-59.18 -50.738,-90.0489 -23.471,-78.3393 -57.05,-106.6286 -102.165998,-86.0722 -56.25000074,25.6293 -72.281001,19.0772 -103.375001,-42.2539 -16.198,-31.9507 -36.314,-62.5628 -44.701,-68.0274 -8.387001,-5.4646 -65.465001,-6.1365 -126.838001,-1.4922 -100.077,7.5733 -120.886,4.722 -201.756,-27.6523 -49.593,-19.8537 -105.484,-36.0977 -124.199,-36.0977 z m 1583.00203,550.8985 c -11.479,-0.2257 -8.413,2.7206 6.811,9.2754 17.288,7.4437 60.211,33.6096 95.384,58.1464 35.174,24.5368 73.311,48.7924 84.75,53.9024 11.44,5.1099 48.309,9.7235 81.932,10.2519 58.923,0.926 60.044,0.1971 31,-20.1465 -58.403,-40.9072 -202.2,-99.7908 -262.992,-107.6933 -17.874,-2.3235 -29.998,-3.6009 -36.885,-3.7363 z m 455.957,187.7773 c -21.128,0.1234 -36.348,1.6996 -36.348,5.1504 0,3.144 -3.733,15.4463 -8.297,27.3379 -6.553,17.0771 1.346,21.605 37.588,21.5449 25.238,-0.042 70.49,-7.0063 100.561,-15.4766 46.622,-13.1321 50.649,-17.0061 27.338,-26.3007 -18.635,-7.4301 -80.506,-12.4914 -120.842,-12.2559 z"
     id="path4188"
     inkscape:connector-curvature="0" />
  <path
     style="fill:#aa8800"
     d="m -634.66393,7608.0028 c -24.406,-26.9689 -24.326,-28.2734 2.901,-47.3442 21.726,-15.2173 30.119,-41.1229 37.46,-115.6236 5.203,-52.8067 18.086,-104.6378 28.629,-115.18 13.49,-13.4901 15.897,-30.7466 8.126,-58.257 -6.072,-21.4991 -8.334,-46.975 -5.025,-56.6131 9.752,-28.4077 -35.142,-84.2809 -87.944,-109.4519 l -49.044,-23.3801 53.131,-9.4638 c 29.222,-5.2051 366.04,-9.8183 748.485,-10.2515 l 695.355,-0.7878 -22.03,30.7546 c -84.215,117.5648 -165.783,248.6941 -235.348,378.3433 l -80.84,150.6621 -470.689999,0.3287 c -459.916001,0.3212 -471.391001,-0.3298 -501.313001,-28.4408 -33.872,-31.8207 -59.985,-24.8957 -59.985,15.9075 0,34.4821 -30.103,33.8971 -61.868,-1.2023 z"
     id="path4194"
     inkscape:connector-curvature="0" />
  <path
     style="fill:#aa8800"
     d="M 215.47407,7791.9818 C 83.930072,7753.0945 51.176072,7737.4807 -55.246929,7662.9315 c -42.816,-29.9932 -85.254001,-54.533 -94.305001,-54.533 -9.051,0 -54.964,-12.3019 -102.03,-27.3375 -59.045,-18.8628 -123.21,-27.3374 -206.983,-27.3374 l -121.409,0 49.708,-98.7074 c 67.982,-134.9948 161.951,-288.8996 233.917,-383.1149 l 60.034,-78.5951 152.974001,0.031 152.974001,0.031 1.495,41.7583 c 1.709,47.7332 77.678998,135.8726 117.111998,135.8726 18.435,0 173.668,66.4494 215.07,92.0638 3.095,1.9148 -2.625,28.4868 -12.712,59.0489 -16.135,48.8898 -15.573,60.2492 4.676,94.5277 22.441,37.99 21.822,41.4496 -24.877,138.8941 -26.341,54.9636 -47.892,110.7728 -47.892,124.0205 0,15.5805 27.536,38.0109 77.974,63.515 l 77.974,39.4283 -43.124,22.3001 c -56.268,29.0977 -83.43,27.5143 -219.855,-12.8161 z"
     id="path4196"
     inkscape:connector-curvature="0" />
  <path
     style="fill:#aa8800"
     d="m 47.012072,7822.6045 c 36.077,-39.8651 28.188,-59.6334 -21.802,-54.6287 -43.421001,4.3469 -44.423001,3.2198 -44.423001,-49.9397 0,-84.2251 -45.487,-81.1978 -160.114001,10.6562 -72.083,57.7619 -176.962,59.4337 -288.632,4.6008 -73.427,-36.0549 -78.98,-41.9629 -70.656,-75.178 11.802,-47.0965 93.067,-180.4693 130.66,-214.4424 16.212,-14.6499 43.659,-54.6049 60.995,-88.7889 21.958,-43.2996 52.537,-75.2181 100.809,-105.2256 72.234,-44.9036 124.284,-112.7877 124.371,-162.2086 0.03,-15.8813 16.966,-51.038 37.640001,-78.1261 20.674,-27.0881 49.225,-65.6146 63.447,-85.6146 24.0270003,-33.7893 31.284001,-35.8604 102.515001,-29.2568 115.306998,10.6899 147.245998,29.9587 155.837998,94.0193 13.37,99.683 57.407,117.9555 143.418,59.5097 27.658,-18.7944 57.483,-34.1718 66.276,-34.1718 9.366,0 19.92,33.8752 25.48,81.7861 13.403,115.4799 56.135,194.4681 115.604,213.6893 25.979,8.3966 49.247,21.3051 51.707,28.6854 19.255,57.7641 -186.727,143.2302 -343.67,142.5956 -110.895,-0.4484 -188.624,16.3904 -219.863998,47.6299 -27.797,27.7969 -4.47,59.6998 43.650998,59.6998 l 33.613,0 -28.614,46.2995 c -16.012,25.907 -24.804,56.2313 -19.962,68.8491 9.906,25.8131 74.142,62.3616 110.594,62.9248 13.53,0.209 -20.409,18.6619 -75.419,41.0062 -117.273998,47.6353 -123.345998,48.6506 -93.461998,15.6295 z"
     id="path4198"
     inkscape:connector-curvature="0" />
  <path
     style="fill:#aa8800"
     d="m -547.79993,7889.1845 c -59.569,-25.9123 -72.837,-57.6839 -72.837,-174.4218 l 0,-100.4637 75.178,-74.2441 c 72.296,-71.3977 94.381,-123.2058 61.249,-143.6821 -7.66,-4.7347 -29.404,-39.1486 -48.319,-76.4754 -18.915,-37.3269 -56.419,-92.2499 -83.343,-122.0512 l -48.952,-54.1841 -120.621,0 c -179.412,0 -175.666,-32.825 7.618,-66.7545 45.107,-8.3502 128.144,-33.4402 184.528,-55.7556 98.756,-39.0858 110.784,-40.5943 328.049,-41.1406 132.868,-0.3342 278.886002,-9.1051 355.386002,-21.3472 71.418998,-11.429 231.342998,-24.4901 355.386998,-29.0246 190.459,-6.9623 239.351,-4.5056 314.381,15.7971 48.865,13.2229 105.674,27.0128 126.241,30.6442 36.84798,6.5059 36.54898,7.0299 -20.503,35.8342 -45.958,23.2036 -65.502,45.1834 -94.773,106.5867 -42.845,89.8786 -99.713,137.666 -195.493,164.2771 -80.65,22.4073 -86.733,45.5985 -23.191,88.4188 l 45.152,30.428 -31.202,16.6985 c -17.161,9.1842 -39.294,24.7909 -49.184,34.6816 -22.234,22.2339 -93.734,40.857 -201.281,52.4264 -103.113,11.0924 -164.643,30.2988 -225.533998,70.4001 -26.312,17.3287 -87.8210007,41.6797 -136.687001,54.1135 -131.451001,33.4476 -182.764001,64.8785 -260.566001,159.6042 -38.572,46.9636 -79.938,93.0771 -91.923,102.4744 -28.297,22.1873 -94.114,20.9308 -148.76,-2.8399 z"
     id="path4200"
     inkscape:connector-curvature="0" />
  <path
     style="fill:#aa8800"
     d="m 393.46307,6888.6247 c -37.001,0.075 -74.383,7.2771 -111.964,21.623 -148.511,56.6909 -187.536998,122.0571 -46.291,77.5332 81.66,-25.7411 141.972,-20.3806 141.972,12.6192 0,11.1334 11.547,20.2441 25.662,20.2441 30.784,0 62.235,34.0937 49.885,54.0762 -4.85,7.8471 -34.082,14.2675 -64.963,14.2675 -65.92,0 -59.646,13.5385 13.184,28.4454 28.275,5.7873 79.088,7.962 112.918,4.8339 33.83,-3.1282 116.977,-10.6483 184.769,-16.7128 146.115,-13.0708 168.298,-22.3757 136.672,-57.3223 -14.808,-16.3633 -19.105,-36.1314 -13.076,-60.1524 7.337,-29.2313 4.206,-35.7793 -17.105,-35.7793 -14.347,0 -33.206,7.1196 -41.909,15.8223 -11.985,11.9851 -20.687,11.7889 -35.871,-0.8125 -12.559,-10.4233 -37.844,-13.2984 -67.701,-7.6973 -37.123,6.9644 -60.763,1.285 -106.969,-25.6953 -51.872,-30.2893 -105.134,-45.4028 -159.213,-45.2929 z m 776.50203,23.1132 c -33.317,-0.6838 -151.755,48.2756 -141.527,58.504 20.658,20.6579 87.476,7.5067 123.68,-24.3438 25.459,-22.3985 31.458,-33.8808 17.847,-34.1602 z m 34.329,110.9278 c -11.245,0.213 -28.504,6.5987 -55.665,17.9472 -41.527,17.3512 -46.647,24.5463 -39.041,54.8536 11.026,43.9309 -14.003,75.5332 -59.822,75.5332 -19.161,0 -44.988,9.1849 -57.39405,20.4121 -19.406,17.5621 -42.466,18.195 -165.10198,4.5312 -193.868,-21.6002 -251.381,-18.3684 -300.926,16.9102 -38.092,27.1245 -43.16,27.7012 -65.547,7.4414 -16.309,-14.7601 -49.809,-21.957 -102.209,-21.957 -55.448,0 -80.141,-5.7153 -85.546,-19.8008 -11.485,-29.927 -119.562,-60.3166 -269.3339987,-75.7324 -141.1960013,-14.533 -181.4950013,-11.8548 -356.1800013,23.6757 -90.605,18.4289 -120.664,19.2385 -189.147,5.0938 -71.903,-14.8514 -85.677,-14.0818 -117.81,6.5879 -54.107,34.8048 -506.54297,388.5472 -515.51197,403.0586 -4.642,7.5107 365.77997,12.5039 927.79097,12.5039 l 935.518,0 107.527,-63.9317 c 59.141,-35.1618 129.05898,-77.9366 155.37098,-95.0547 26.312,-17.1181 75.03705,-35.4345 108.27805,-40.705 38.796,-6.1515 75.189,-23.6828 101.636,-48.9571 22.66,-21.6549 49.604,-36.1458 59.879,-32.2031 10.275,3.9427 32.2,-1.4065 48.721,-11.8867 16.521,-10.4802 69.7,-23.4582 118.176,-28.8398 71.408,-7.9278 95.577,-17.2238 127.336,-48.9825 21.559,-21.5591 35.354,-45.4185 30.656,-53.0195 -16.935,-27.4011 -85.532,-13.5406 -137.541,27.791 -58.155,46.2156 -106.422,48.7093 -112.565,5.8145 -2.186,-15.2643 -17.561,-33.7169 -34.17,-41.0059 -20.523,-9.0074 -31.571,-27.485 -34.482,-57.6777 -2.877,-29.8376 -6.462,-42.7118 -22.896,-42.4004 z"
     id="path4202"
     inkscape:connector-curvature="0" />
  <path
     style="fill:#aa8800"
     d="m -780.40993,7743.6649 c 45.069,-24.4325 44.518,-64.8003 -0.974,-71.2906 -35.594,-5.0783 -38.978,-19.5163 -10.175,-43.4205 11.242,-9.3301 27.601,-40.8653 36.354,-70.078 16.86,-56.2748 31.873,-64.0048 168.74,-86.8822 64.549,-10.7895 116.184,-41.0191 116.184,-68.0199 0,-19.1037 -9.818,-23.6898 -88.653,-41.4113 -34.689,-7.7977 -37.306,-11.1372 -17.44,-22.2548 12.855,-7.1942 65.051,-16.7849 115.991,-21.3126 123.054,-10.9376 144.616,-22.768 133.526,-73.2628 -7.749,-35.2795 -4.522,-40.3783 29.877,-47.2157 21.21,-4.2158 83.71,-20.0208 138.888,-35.1223 55.178,-15.1014 164.8440013,-37.4377 243.701002,-49.6361 134.476998,-20.8021 154.977998,-20.6544 330.240998,2.3783 102.775,13.5064 194.249,28.3757 203.277,33.0427 16.268,8.4109 -329.611,293.4966 -473.843,390.558 -77.996998,52.4876 -103.401998,56.2028 -219.849999,32.1506 -65.250001,-13.4771 -90.371001,-12.3967 -158.910001,6.8344 -44.774,12.5632 -102.533,22.8611 -128.352,22.8842 -26.366,0.023 -88.543,20.995 -141.841,47.8405 -52.194,26.2891 -102.763,47.7984 -112.377,47.7984 -9.614,0 -52.251,15.3773 -94.749,34.1718 -84.467,37.3554 -131.047,45.5506 -69.615,12.2479 z"
     id="path4204"
     inkscape:connector-curvature="0" />
  <path
     style="fill:#800000"
     d="m -19.810929,8564.5485 c -13.935,-15.3987 -60.385,-49.2882 -103.222001,-75.31 -42.837,-26.0218 -81.703,-57.2639 -86.371,-69.4266 -5.65,-14.726 12.681,-44.7426 54.869,-89.8448 54.627001,-58.4017 62.357001,-73.694 56.114001,-111.0238 -14.905001,-89.1325 -35.709001,-117.8368 -128.838001,-177.7629 -82.891,-53.338 -95.309,-67.2233 -117.718,-131.6236 -17.977,-51.6654 -20.872,-76.1742 -10.251,-86.795 42.439,-42.4391 -2.99,-147.2887 -81.077,-187.1259 -34.49,-17.5953 -61.048,-43.8312 -72.779,-71.8948 -24.253,-58.0191 -42.27,-71.5946 -146.833,-110.6338 -87.876,-32.8088 -106.087,-50.9816 -135.457,-135.169 -16.54,-47.4105 -42.952,-47.6282 -136.275,-1.1233 l -73.17697,36.4657 -31.366,-36.4657 c -17.252,-20.0561 -43.134,-36.4657 -57.517,-36.4657 -37.068,0 -91.462,-46.4639 -111.76,-95.4673 -14.602,-35.2533 -13.645,-51.2375 6.174,-103.1347 25.807,-67.5738 52.953,-88.441 115.051,-88.441 22.604,0 44.645,-5.7399 48.981,-12.7554 18.699,-30.2556 31.38797,-144.6277 19.511,-175.8655 -6.949,-18.2786 -8.649,-63.2785 -3.778,-99.9998 8.677,-65.4102 9.822,-66.766 56.38597,-66.766 34.418,0 54.945,9.4268 74.409,34.1718 34.45,43.796 66.747,43.1973 120.744,-2.2385 39.601,-33.3219 42.54,-41.2862 34.651,-93.8944 -8.272,-55.1608 -7.287,-57.2293 24.367,-51.1782 18.143,3.4682 51.924,-3.4867 75.069,-15.4553 70.308,-36.3577 89.316,-29.7354 79.969,27.8608 -10.657,65.6728 20.826,128.0713 64.618,128.0713 17.656,0 58.252,-9.2264 90.214,-20.5031 31.961,-11.2767 103.056,-20.5031 157.988,-20.5031 86.296,0 101.002,-3.5489 108.16,-26.1031 4.557,-14.3566 17.171,-33.478 28.032,-42.4918 16.169001,-13.4192 22.502001,-9.3088 34.953001,22.6859 8.363,21.4911 19.274,66.7538 24.247,100.5839 7.971,54.2312 13.477,62.021 46.5350003,65.8348 20.6220007,2.3791 43.8590007,16.2187 51.6390007,30.7546 10.772,20.129 28.84,26.429 75.793998,26.429 47.23,0 69.497,7.8473 95.2,33.5505 18.453,18.4528 33.55,38.8042 33.55,45.2254 0,6.4212 58.486,18.0157 129.968,25.7656 115.171,12.4866 138.123,19.7056 201.613,63.4124 39.406,27.1269 94.712,58.951 122.904,70.7201 52.999,22.1255 59.159,36.7291 52.016,123.3276 -4.263,51.6926 -28.116,97.7684 -116.872,225.7533 -70.739,102.0045 -71.134,103.1624 -79.267,232.3681 -8.62,136.9542 -36.405,262.8147 -75.195,340.6094 -19.538,39.1832 -34.937,49.6369 -95.334,64.7156 -89.056,22.2341 -139.181,47.673 -201.157,102.0891 -40.101,35.209 -48.124,51.5182 -48.625,98.8426 -0.33,31.1719 -9.93,81.2798 -21.332,111.351 -11.402,30.0711 -27.083,75.6966 -34.846998,101.39 -12.835,42.4759 -73.853,151.4812 -84.796,151.4812 -2.4990007,0 -15.9460007,-12.5989 -29.882001,-27.9976 z"
     id="path4210"
     inkscape:connector-curvature="0" />
  <path
     style="fill:#800000"
     d="m 22.076072,7879.3061 c 9.485,-49.6475 -17.5980007,-72.7112 -85.385001,-72.7112 -28.22,0 -55.763001,-17.0202 -99.251001,-61.3306 -33.105,-33.7318 -82.055,-68.3942 -108.778,-77.0276 -26.723,-8.6334 -72.152,-27.5459 -100.952,-42.0277 -50.364,-25.324 -51.541,-27.474 -30.79,-56.2423 57.363,-79.5247 79.264,-137.8037 72.502,-192.9272 -3.756,-30.6262 -10.926,-65.6206 -15.931,-77.7652 -11.502,-27.9058 147.05,-214.2446 191.867,-225.493 16.996,-4.2657 41.534,-19.5044 54.529,-33.8639 30.626001,-33.8413 67.474001,-35.3739 52.602001,-2.1878 -5.896,13.1561 -11.167,45.4485 -11.714,71.7607 -0.797,38.3216 4.199,47.8405 25.109,47.8405 18.795,0 30.3850003,-15.3099 41.3910003,-54.6748 19.5490007,-69.923 55.0890007,-76.5733 150.6979987,-28.1992 99.246,50.2136 224.869,68.9387 287.351,42.8318 44.416,-18.558 48.039,-18.2454 48.039,4.1433 0,13.3185 50.746,73.7366 112.767,134.2625 112.046,109.3427 113.336,110.112 201.614,120.204 95.306,10.8954 164.05598,38.32 163.97298,65.4094 -0.03,9.2041 -12.239,36.7253 -27.136,61.1582 -25.986,42.6207 -30.612,44.4233 -113.99298,44.4233 -50.186,0 -119.228,11.1199 -163.399,26.3168 -68.441,23.5471 -78.323,24.1099 -93.894,5.3473 -9.83,-11.844 -16.168,-49.3607 -14.565,-86.2097 4.072,-93.5833 -21.39,-111.4245 -99.718,-69.8716 -44.317,23.5101 -70.163,28.9682 -103.01,21.7537 l -43.85,-9.631 9.476,75.8429 c 9.425,75.4363 9.236,75.9668 -35.247,98.9701 l -44.723,23.1272 -37.019,-44.3423 c -21.274,-25.4827 -43.654,-40.2409 -52.621,-34.6991 -8.582,5.3037 -31.061,11.3399 -49.953,13.4138 -61.179998,6.7158 -65.493998,24.3172 -59.416998,242.4048 0.984,35.3246 -5.111,75.3056 -13.545,88.8467 -12.619,20.2622 -13.863,16.9252 -7.027,-18.8528 z"
     id="path4212"
     inkscape:connector-curvature="0" />
  <path
     style="fill:#800000"
     d="m 469.30407,7973.5016 c -27.086,-4.2259 -30.455,-11.8598 -27.337,-61.943 l 3.556,-57.1232 -85.652,-43.0342 c -47.109,-23.6688 -109.33,-64.4254 -138.269,-90.5701 -52.116,-47.083 -53.579,-47.4702 -153.550998,-40.6357 -55.513,3.795 -111.512001,12.3767 -124.442001,19.0703 -18.89,9.7786 -28.594,2.0464 -49.384001,-39.3485 -14.231,-28.3353 -36.143,-82.2733 -48.693,-119.8623 -12.55,-37.5889 -31.748,-80.1495 -42.663,-94.579 -18.967,-25.0763 -21.017,-25.1741 -46.389,-2.2122 -25.565,23.136 -29.233,22.022 -99.316,-30.1663 -40.024,-29.8042 -97.008,-69.2268 -126.631,-87.6059 -60.745,-37.6872 -154.145,-173.8127 -237.302,-345.8539 -29.071,-60.1424 -69.08,-128.4849 -88.91,-151.8723 -58.904,-69.4719 -69.469,-112.1028 -42.565,-171.7646 19.487,-43.2151 20.437,-57.7809 6.038,-92.544 -15.043,-36.3183 -13.221,-49.056 15.228,-106.4153 23.514,-47.4106 39.763,-64.604 59.654,-63.1225 58.896,4.3866 187.021,71.7328 251.868,132.39 54.165,50.6653 77.962,63.7702 115.795,63.7702 26.191,0 50.288,4.6132 53.55,10.2516 13.171,22.766 -15.478,63.0538 -59.678,83.9242 -36.956,17.4495 -52.295,37.2196 -72.51,93.4532 -15.997,44.501 -22.172,85.131 -16.422,108.0435 12.294,48.9809 93.006,128.0578 130.707,128.0578 16.585,0 42.25,15.3773 57.034,34.1717 33.775,42.9383 61.387,42.9716 136.267,0.1648 77.018001,-44.0291 84.969001,-43.1814 104.617001,11.1544 20.991,58.0489 62.0090003,94.6191 139.398001,124.2807 91.197998,34.9546 120.684998,57.8904 142.957998,111.1974 13.608,32.5672 35.371,54.4521 67.501,67.8767 80.431,33.6061 113.752,108.2744 69.929,156.6989 -18.065,19.9612 -17.305,28.3794 6.834,75.7272 14.937,29.2981 27.158,60.558 27.158,69.4664 0,17.9895 63.673,74.0388 150.612,132.5806 49.829,33.5528 55.853,42.9976 47.944,75.178 -19.871,80.8573 -58.729,111.836 -126.934,101.1954 z"
     id="path4214"
     inkscape:connector-curvature="0" />
  <path
     style="fill:#800000"
     d="m 35.461072,8484.2724 c -57.322001,-25.6614 -123.400001,-99.2703 -154.436002,-172.0376 -14.453,-33.8866 -43.256,-81.789 -64.007,-106.45 -35.079,-41.689 -36.173,-46.557 -15.575,-69.3172 12.184,-13.4635 22.153,-33.0155 22.153,-43.449 0,-37.4039 -45.801,-143.7987 -82.285,-191.1441 -48.01,-62.3038 -68.07,-159.1033 -68.07,-328.4677 0,-74.8889 -9.543,-195.4652 -21.207,-267.9475 -11.664,-72.4823 -23.311,-241.4864 -25.882,-375.5645 -4.134,-215.5408 -7.898,-249.2402 -32.496,-290.9304 -22.435,-38.0243 -24.391,-49.9983 -10.103,-61.8558 24.501,-20.334 38.79,0.7404 74.667,110.1255 34.917,106.4549 80.753,158.5564 120.688,137.1839 14.429,-7.7221 67.475,-15.3753 117.881,-17.0071 83.379001,-2.6993 95.1840013,0.4229 130.871002,34.6128 21.574,20.6689 78.285998,57.6851 126.028998,82.2581 85.546,44.0312 86.741,45.4293 82.534,96.5245 -5.083,61.7443 10.15,74.5188 89.206,74.806 51.306,0.1865 61.387,-5.3644 92.264,-50.8042 31.316,-46.0864 34.664,-47.8736 34.664,-18.5033 0,19.676 -24.282,58.4696 -61.509,98.2684 -33.83,36.167 -61.509,74.0974 -61.509,84.2897 0,24.2805 57.949,76.4582 145.888,131.3587 100.083,62.4822 106.087,72.4139 70.85,117.2099 -27.466,34.9169 -34.253,36.8237 -101.272,28.4502 -87.078,-10.8796 -100.524,3.5534 -61.752,66.2874 33.374,54.0001 36.492,107.5907 7.654,131.5249 -11.355,9.4234 -49.798,22.5231 -85.43,29.1104 -72.243,13.3557 -98.957,39.3798 -98.957,96.403 0,33.6355 -5.135,38.3937 -41.435,38.3937 -53.853,0 -65.836998,32.2817 -29.985,80.7743 18.744,25.3518 23.919,44.1523 15.719,57.1053 -6.723,10.6208 -12.318,30.6629 -12.433,44.538 -0.115,13.8751 -12.353,42.2817 -27.195,63.1258 -26.947998,37.8446 -26.945998,37.9351 1.399,63.587 15.612,14.1287 37,42.3462 47.528,62.7058 17.017,32.9063 16.024,44.9291 -8.94,108.2629 -23.799,60.3783 -25.557,77.3427 -11.526,111.2162 13.557,32.731 13.066,42.1796 -2.711,52.1675 -26.304,16.6514 -52.856998,14.8656 -101.279998,-6.8115 z"
     id="path4216"
     inkscape:connector-curvature="0" />
  <path
     style="fill:#aa4400"
     d="m -248.16393,8071.4264 c -9.398,-9.5853 -17.146,-33.1126 -17.22,-52.2829 -0.155,-40.4548 -46.037,-143.1759 -105.997,-237.3034 -25.61,-40.2049 -45.445,-93.3243 -51.038,-136.6871 -15.826,-122.6955 -47.866,-230.8496 -106.04,-357.9527 -76.017,-166.087 -77.328,-245.2083 -6.529,-394.2897 48.623,-102.3875 49.311,-106.0931 29.9,-161.1099 -10.927,-30.9716 -20.064,-75.5291 -20.303,-99.0168 -0.239,-23.4876 -9.465,-54.6445 -20.503,-69.2375 -39.547,-52.2867 -26.519,-62.3139 80.966,-62.3139 96.64,0 101.41,1.5008 109.697,34.5195 10.473,41.7278 54.744,88.4989 83.768,88.4989 11.618,0 37.307,-16.183 57.086,-35.9622 29.774,-29.7735 42.016,-33.8397 71.14,-23.6285 31.15,10.9218 36.087,21.8039 43.127,95.0526 9.717001,101.1083 17.552001,114.894 65.301001,114.894 20.606,0 43.3090003,5.1607 50.451001,11.4681 7.142,6.3075 49.598,19.8904 94.346998,30.1843 49.689,11.4303 98.28,33.5709 124.823,56.8755 51.379,45.1112 62.202,46.5404 93.184,12.3052 22.321,-24.664 21.444,-27.2453 -19.05,-56.0796 -39.264,-27.9588 -42.141,-35.4679 -38.365,-100.1329 3.506,-60.0215 9.403,-72.8704 41.704,-90.8592 34.632,-19.2867 41.655,-18.7792 88.384,6.3858 71.1,38.2896 95.154,105.1231 77.108,214.2408 -13.032,78.8001 -12.28,82.6062 21.545,109.0454 19.658,15.3662 38.049,46.3657 41.882,70.5988 7.472,47.2323 42.406,63.8781 75.835,36.1346 29.071,-24.1273 24.758,-112.5427 -7.491,-153.5407 -15.036,-19.1146 -27.338,-50.6988 -27.338,-70.1869 0,-34.1103 2.998,-35.433 80.294,-35.433 44.161,0 104.826,-8.6557 134.811,-19.2348 l 54.517,-19.2348 7.932,94.6075 c 11.022,131.4746 -4.358,166.2283 -99.569,224.9961 -45.283,27.9499 -108.949,85.6386 -149.024,135.0329 l -69.967,86.2359 20.503,49.0713 c 40.065,95.8886 32.867,113.2548 -88.187,212.7719 -39.674,32.616 -46.944,47.1401 -45.692,91.2903 1.213,42.822 -11.023,69.3277 -66.36,143.7444 -64.963,87.3626 -151.571,169.9418 -235.214,224.2731 -28.447998,18.4784 -67.442998,25.9076 -143.521999,27.3433 -57.453,1.0839 -129.064001,6.5549 -159.136001,12.1575 -37.971,7.0745 -59.894,4.8624 -71.76,-7.2412 z"
     id="path4218"
     inkscape:connector-curvature="0" />
  <path
     style="fill:#aa4400"
     d="m 317.01707,7961.4626 c -20.887,-21.8007 -54.33,-42.8227 -74.318,-46.7154 -19.989,-3.8928 -60.947,-14.2407 -91.018,-22.9954 -30.071,-8.7547 -68.739998,-16.9496 -85.930998,-18.211 -41.956,-3.0785 -57.1300007,-31.0075 -57.3810007,-105.6134 -0.251,-74.6315 -20.2750003,-105.4094 -75.6460003,-116.2723 -32.208,-6.3185 -49.497001,-0.4668 -78.766001,26.6588 -46.371,42.9753 -70.552,34.8492 -100.885,-33.9039 l -23.548,-53.3712 -111.359,0 c -106.642,0 -112.045,-1.5045 -127.541,-35.515 -8.9,-19.5333 -42.18,-66.3566 -73.955,-104.0518 -50.447,-59.8457 -57.638,-76.5751 -56.704,-131.9268 0.589,-34.8645 8.755,-86.456 18.146,-114.6477 l 17.076,-51.2577 149.725,0 c 117.11,0 151.356,-4.2509 157.214,-19.5149 4.118,-10.7333 -12.858,-56.2436 -37.725,-101.1341 -38.5,-69.4991 -43.185,-87.4059 -31.55,-120.5894 10.789,-30.769 28.601,-43.774 84.636,-61.7964 39.034,-12.5543 127.307,-61.4113 196.162001,-108.571 118.824001,-81.384 126.148001,-84.4351 144.022001,-59.9909 10.358,14.1647 18.832,36.5579 18.832,49.7625 0,13.2047 39.980998,65.7992 88.846998,116.8766 48.866,51.0774 88.847,99.7777 88.847,108.2228 0,8.4451 12.583,31.3516 27.962,50.9033 22.108,28.106 36.02,33.9368 66.45,27.8508 23.124,-4.6248 56.007,1.3615 82.373,14.9958 33.141,17.1378 61.744,20.4621 116.836,13.5788 64.585,-8.0693 74.662,-5.9194 87.862,18.744 39.89,74.5358 5.569,134.1941 -137.072,238.2617 -35.974,26.2456 -53.564,52.3641 -64.491,95.7564 -8.263,32.8169 -27.522,70.9777 -42.797,84.8017 -34.816,31.5081 -34.669,65.881 0.614,143.6662 20.701,45.6373 23.436,62.7094 10.728,66.9457 -9.383,3.1274 -31.248,19.8754 -48.591,37.2175 -46.345,46.3453 -44.915,157.32 2.641,204.8755 38.877,38.8766 41.565,46.5979 16.226,46.5979 -9.87,0 -35.035,-17.837 -55.921,-39.6377 z"
     id="path4220"
     inkscape:connector-curvature="0" />
  <path
     style="fill:#aa4400"
     d="m 10.042072,8846.7865 c -5.0230007,-21.2079 -21.508001,-52.1959 -36.633001,-68.862 -22.409,-24.691 -26.082,-42.4084 -19.838,-95.681 13.567,-115.7544 -5.11,-165.9232 -96.077001,-258.0664 -101.879,-103.1971 -116.852,-151.2447 -65.974,-211.7101 19.406,-23.0633 35.284,-53.4738 35.284,-67.5788 0,-46.5709 28.723,-89.8047 76.898001,-115.749 26.125,-14.0691 69.427,-49.8511 96.22700026,-79.5156 44.43300074,-49.1822 48.10900074,-59.427 41.70400074,-116.2463 -9.362,-83.0615 -36.3720007,-101.9154 -129.358001,-90.2974 -55.496001,6.9338 -79.766001,3.7468 -106.911001,-14.039 -19.833,-12.9955 -54.039,-21.1165 -78.598,-18.6604 -36.679,3.6682 -46.694,-2.0702 -64.001,-36.6722 -11.285,-22.5615 -32.813,-53.86 -47.84,-69.5522 -88.314,-92.2205 -143.561,-158.7832 -143.936,-173.4187 -0.236,-9.196 -18.689,-53.4689 -41.006,-98.3843 -56.432,-113.5721 -51.253,-188.9921 16.267,-236.9084 20.866,-14.8078 25.168,-36.5876 25.168,-127.412 0,-79.1537 5.689,-115.24 20.503,-130.0541 11.277,-11.2767 20.503,-38.5165 20.503,-60.5328 l 0,-40.0299 222.319,0 c 194.124001,0 228.611001,-3.3723 271.9310013,-26.5907 46.5480007,-24.9481 50.8970007,-25.1591 70.4020007,-3.4172 11.434,12.7455 24.988998,47.7773 30.120998,77.8485 5.132,30.0711 26.356,79.2785 47.165,109.3497 20.808,30.0712 51.285,81.2089 67.726,113.6394 16.441,32.4306 67.328,93.9398 113.083,136.6872 45.755,42.7474 92.133,99.2508 103.064,125.5631 32.659,78.6187 83.463,123.137 139.489,122.2305 46.001,-0.7443 198.206,-37.2414 250.314,-60.0227 20.441,-8.9368 23.944,-2.79 24.087,42.2623 0.123,37.1089 -23.141,99.2665 -78.544,209.9104 -69.751,139.2948 -91.728,169.6392 -193.047,266.54 -62.885,60.1423 -162.339,166.6329 -221.011,236.6456 -150.137,179.1599 -165.51,261.9108 -79.848,429.8224 l 26.289,51.5294 -32.735,12.4457 c -57.064,21.6959 -181.906998,40.5385 -213.627998,32.2431 -58.66900074,-15.3423 -73.918001,64.7737 -26.83,140.9633 29.654,47.9821 31.27,115.5548 2.985,124.8383 -9.208,3.0224 -20.642,-11.7034 -25.714,-33.1177 z"
     id="path4222"
     inkscape:connector-curvature="0" />
  <path
     style="fill:#aa4400"
     d="m 515.13307,8274.8866 c -45.461,-4.0278 -67.229,-14.3419 -88.714,-42.0354 -58.69,-75.6487 -88.953,-98.2072 -131.747,-98.2072 -28.2,0 -62.131,-15.7112 -99.72,-46.1732 -31.336,-25.3952 -69.779,-50.0848 -85.429,-54.8657 -16.312998,-4.9836 -85.556998,8.8852 -162.287999,32.5045 -83.493001,25.7007 -163.660001,41.197 -213.124001,41.197 -43.608,0 -110.356,7.1713 -148.327,15.9362 -52.503,12.119 -81.747,12.1291 -122.089,0.041 -74.282,-22.2539 -171.755,-112.8411 -221.16,-205.534 -23.008,-43.1687 -72.37,-111.8796 -109.693,-152.6907 -65.725,-71.8683 -67.859,-76.8049 -67.859,-156.9645 0,-55.7765 8.913,-100.2465 27.337,-136.3834 32.591,-63.9256 34.544,-119.6593 6.934,-197.9133 -26.825,-76.0296 -18.209,-105.29 76.826,-260.9204 57.387,-93.9763 108.318,-156.3525 180.967,-221.6309 81.347,-73.0938 102.969,-100.9577 110.649,-142.5898 7.435,-40.306 30.86,-72.1375 105.977,-144.0073 53.037,-50.7451 103.288,-92.0458 111.668,-91.7794 8.381,0.2664 30.614,9.2748 49.409,20.0187 50.349,28.7821 79.274,25.1153 177.693001,-22.5259 78.2220003,-37.8645 109.279001,-44.3878 259.705999,-54.55 93.972,-6.3485 192.387,-13.1317 218.699,-15.0739 l 47.841,-3.5312 7.182,71.4251 c 3.95,39.2838 14.714,78.9573 23.92,88.1632 23.021,23.0211 20.975,59.082 -4.555,80.2696 -40.657,33.7424 -58.976,107.0812 -62.763,251.2693 -4.214,160.4233 0.112,169.8652 113.967,248.7665 44.536,30.8637 70.671,37.7893 154.537,40.9508 108.347,4.0845 142.643,17.5228 352.04903,137.9438 l 105.933,60.9175 0,93.8055 c 0,64.7903 -5.769,97.1865 -18.651,104.7363 -28.78,16.8667 -63.361,93.7036 -63.361,140.7835 0,23.3001 8.777,59.3371 19.505,80.0824 l 19.505,37.7187 -134.59105,90.6328 c -74.02498,49.848 -160.01298,97.4781 -191.08498,105.845 -117.817,31.7247 -139.194,110.0074 -63,230.707 19.949,31.6 32.61,63.3767 28.136,70.6149 -7.903,12.7879 -87.344,13.9389 -210.284,3.0469 z"
     id="path4226"
     inkscape:connector-curvature="0" />
  <path
     style="fill:#aa4400"
     d="m -126.00093,7664.8208 c -3.959,-10.3155 -11.33,-46.3153 -16.381,-79.9996 -7.561,-50.4165 -2.922,-73.6022 26.237,-131.1459 25.840001,-50.9921 35.479001,-91.2863 35.632001,-148.9514 0.233,-88.1016 7.401,-105.519 48.727,-118.3978 15.639,-4.8736 67.011001,-45.6837 114.162001,-90.689 47.149998,-45.0053 88.175998,-81.8278 91.166998,-81.8278 2.992,0 5.44,34.5112 5.44,76.6916 0,55.9836 -18.454,131.2357 -68.344,278.695 -37.588998,111.1019 -68.342998,212.1905 -68.342998,224.6415 0,40.2501 -62.924001,89.739 -114.101001,89.739 -27.221,0 -50.028001,-7.8925 -54.196001,-18.7556 z"
     id="path4228"
     inkscape:connector-curvature="0" />
  <path
     style="fill:#0044aa"
     d="m -87.090929,7061.4669 c -8.941,0.019 -14.392001,7.6255 -22.436001,25.2793 -17.024,37.3642 1.374,85.0765 44.643001,115.7832 35.193,24.9752 31.398,56.1324 -12.422,102.0078 -35.024001,36.6671 -35.956001,40.5517 -13.668,56.9297 13.156,9.6676 23.92,26.8698 23.92,38.2265 0,17.1808 10.747,18.6412 63.9840003,8.6953 35.1920007,-6.5744 78.8710007,-21.7087 97.0670007,-33.6308 l 33.081998,-21.6758 -33.380998,-36.3672 c -18.36,-20.0013 -46.314,-57.8947 -62.119,-84.207 -15.805,-26.3123 -41.4780007,-55.6363 -57.051001,-65.166 -20.846,-12.7567 -26.141,-25.9799 -20.078,-50.1348 6.151,-24.508 0.999,-36.6806 -20.363,-48.1133 -9.192,-4.919 -15.813,-7.6384 -21.178,-7.6269 z m -128.262001,149.2129 c -14.504,-0.1511 -34.003,2.9149 -50.89,8.4882 -44.472,14.6769 -74.186,64.6356 -74.186,124.7305 0,54.8534 98.354,4.7574 136.162,-69.3535 24.463,-47.9512 24.935,-53.9048 4.883,-61.5996 -3.815,-1.4641 -9.376,-2.197 -15.969,-2.2656 z"
     id="path4230"
     inkscape:connector-curvature="0" />
  <path
     style="fill:#0044aa"
     d="m -118.31193,7352.5134 c -16.915,-8.1578 -30.754,-19.5337 -30.754,-25.2797 0,-16.4641 129.861001,-40.05 220.511002,-40.05 100.490998,0 102.105998,21.667 4.183,56.1336 -77.3480007,27.225 -149.467001,30.6446 -193.940002,9.1961 z"
     id="path4234"
     inkscape:connector-curvature="0" />
  <path
     style="fill:#0044aa"
     d="m 27.708072,7508.6206 c -72.861001,-94.9121 -96.814001,-107.9719 -168.546002,-91.8965 -33.715,7.5558 -70.821,10.0847 -82.457,5.6197 -22.621,-8.6805 -53.274,-101.6548 -46.027,-139.6066 2.406,-12.5983 47.29,-44.1465 99.824,-70.1637 69.884001,-34.6098 124.766001,-77.2801 204.881002,-159.2945 156.582998,-160.2938 272.623998,-210.3286 487.798998,-210.3286 119.539,0 139.556,8.2057 100.034,41.0061 -26.295,21.8236 -26.071,46.7067 0.622,68.8599 11.619,9.6427 18.287,24.9281 14.819,33.9675 -7.331,19.1045 50.175,190.3956 73.257,218.2078 18.062,21.7638 -13.305,80.7738 -50.528,95.0577 -50.928,19.5428 -222.112,25.1391 -242.837,7.9387 -32.857,-27.2682 -24.582,-85.6864 22.125,-156.2005 l 42.991,-64.905 -29.255,-29.255 -29.255,-29.255 -64.994,62.3727 c -35.747,34.305 -84.997,76.0502 -109.445,92.7671 -24.448,16.717 -51.027,42.681 -59.064,57.6979 -14.505,27.1046 -11.713,33.7722 48.508,115.8181 9.631,13.122 1.087,30.8069 -30.755,63.6598 -24.25,25.0196 -44.091,53.1657 -44.091,62.5467 0,19.7813 -61.038,84.1575 -79.793998,84.1575 -6.982,0 -32.997,-26.4473 -57.812,-58.7718 z"
     id="path4236"
     inkscape:connector-curvature="0" />
  <path
     style="fill:#0044aa"
     d="m 376.41807,8213.107 c -22.135,-16.9878 -78.908,-68.8075 -126.163,-115.155 -47.254,-46.3475 -119.619,-103.288 -160.808998,-126.5345 -66.677,-37.6298 -73.946,-46.0378 -66.264,-76.6453 14.935,-59.5067 12.937,-77.1334 -10.465,-92.3088 -17.1390007,-11.1134 -36.805001,-8.4091 -79.782001,10.9708 -51.346001,23.1537 -56.270001,29.5508 -49.357001,64.1152 7.007,35.0384 4.204,38.3952 -32.065,38.3952 -27.563,0 -42.367,-8.2686 -48.306,-26.9809 -4.71,-14.8395 -24.267,-39.3327 -43.459,-54.4293 l -34.895,-27.4485 -55.604,47.595 c -30.582,26.1772 -60.962,47.595 -67.51,47.595 -6.548,0 -21.408,-23.066 -33.021,-51.2577 -39.782,-96.5691 -61.92,-109.9219 -169.478,-102.2261 l -95.055,6.8012 0,-38.5447 c 0,-21.1995 13.492,-52.9063 29.983,-70.4594 26.748,-28.4724 28.222,-36.7809 13.668,-77.0293 -8.972,-24.8131 -16.313,-58.0456 -16.313,-73.8501 0,-15.8044 -15.378,-47.0103 -34.172,-69.3463 -18.795,-22.3359 -34.172,-45.932 -34.172,-52.4356 0,-6.5036 -12.691,-19.7504 -28.202,-29.4373 -17.686,-11.0449 -26.606,-28.8362 -23.92,-47.7113 3.409,-23.9625 14.731,-30.9636 55.539,-34.341 39.557,-3.2739 51.258,-10.1104 51.258,-29.948 0,-14.1381 -6.251,-29.5691 -13.892,-34.2911 -28.247,-17.4575 3.7,-34.0399 65.956,-34.2355 81.017,-0.2547 131.977,-25.2334 134.042,-65.7022 0.869,-17.0147 14.708,-44.9112 30.755,-61.9922 34.317,-36.5293 37.191,-67.1359 8.535,-90.9181 -22.078,-18.3232 -69.007,-158.6704 -63.174,-188.9298 1.928,-10.0019 -6.104,-32.8514 -17.849,-50.7767 -27.183,-41.4866 -26.983,-43.2481 6.98,-61.4242 21.568,-11.5433 43.598,-10.1864 92.263,5.6832 35.162,11.466 109.818,31.0965 165.903,43.6234 115.437,25.7834 164.567,45.1279 164.567,64.7966 0,13.7657 -182.171,4.4216 -242.454,-12.4363 -21.846,-6.1093 -33.222,-1.6908 -39.803,15.4606 -6.788,17.6874 11.114,43.5505 67.943,98.1623 61.502,59.1011 84.835,73.2654 114.982,69.8 26.197,-3.0113 37.239,-11.7 35.924,-28.2679 -1.308,-16.4799 8.008,-23.9203 29.948,-23.9203 17.516,0 35.851,-6.4794 40.745,-14.3987 4.895001,-7.9192 37.550001,-27.9758 72.568001,-44.5701 43.759001,-20.7367 65.034001,-39.7427 68.036001,-60.7793 5.378,-37.6842 16.371,-38.2748 60.870998,-3.2704 l 34.754,27.3374 70.504,-36.5785 c 61.357,-31.8334 88.561,-36.9313 209.709,-39.2979 88.629,-1.7314 160.936,-10.7893 199.016,-24.9307 82.892,-30.7827 89.084,-29.2572 129.57,31.9207 l 35.823,54.132 -64.761,43.4515 c -35.619,23.8983 -72.45,52.9974 -81.847,64.6646 -26.354,32.7201 -20.269,85.7714 16.729,145.841 18.522,30.0711 33.867,61.963 34.102,70.8709 0.235,8.9078 7.983,33.5115 17.219,54.6748 9.236,21.1634 16.925,63.0825 17.086,93.1537 0.261,48.6602 5.556,57.3267 48.134,78.7807 44.812,22.5796 45.893,24.6276 17.086,32.3488 -57.932,15.5273 -21.952,59.7295 48.619,59.7295 34.064,0 44.618,5.0844 39.304,18.9339 -8.648,22.5352 23.355,71.3153 75.82998,115.582 20.863,17.6003 34.609,37.3803 30.545,43.9555 -10.418,16.8566 -219.78498,0.7982 -292.41398,-22.4282 -100.586,-32.1666 -161.745,-25.7393 -206.013,21.6501 -21.068,22.5534 -48.292,41.0061 -60.497,41.0061 -29.271,0 -53.007,62.3794 -35.899,94.3452 7.127,13.3165 41.804,47.8496 77.062,76.7402 l 64.104,52.5286 -50.753,46.5116 -50.753,46.5116 76.91,100.4123 c 47.108,61.5039 79.979,119.3275 84.831,149.2275 8.601,53.0006 3.872,57.2881 -35.834,32.4911 -20.261,-12.6531 -34.197,-12.6531 -61.967,0 -49.815,22.6971 -64.446,20.7684 -110.481,-14.5626 z"
     id="path4238"
     inkscape:connector-curvature="0" />
  <path
     style="fill:#0044aa"
     d="m 175.56607,7572.059 c -48.912,-13.5238 -54.943,-26.7609 -23.92,-52.5072 24.688,-20.4893 26.567,-56.8122 4.1,-79.2785 -27.652,-27.6526 -132.395998,-19.6141 -187.014999,14.3521 -68.63,42.6804 -132.695001,63.2259 -154.347001,49.499 -9.969,-6.3203 -34.187,-11.5856 -53.819,-11.7007 -30.552,-0.1792 -34.763,-5.0733 -29.237,-33.9828 6.758,-35.3505 -14.674,-50.83 -93.456,-67.4989 -38.634,-8.1744 -108.153,-57.5317 -108.153,-76.7869 0,-22.5077 126.779,-108.9837 159.777,-108.9837 18.055,0 48.642,-15.8141 67.97,-35.1423 29.509,-29.5095 33.825,-43.3777 26.926,-86.5217 -5.547,-34.6898 -1.765,-59.9047 11.643,-77.6246 19.313,-25.5256 19.87,-25.4241 20.292,3.7027 0.239,16.4713 6.586,33.7494 14.104,38.3956 7.518,4.6463 13.669,22.5087 13.669,39.6944 0,57.8394 36.444,72.8162 164.0240013,67.4058 199.5049987,-8.4607 230.1909987,-12.797 281.7679987,-39.8179 34.61,-18.1317 51.892,-21.3856 55.756,-10.4979 3.08,8.678 20.654,33.2816 39.052,54.6748 18.399,21.3932 33.46,52.3358 33.469,68.7615 0.01,16.4256 6.368,46.5703 14.131,66.9883 11.685,30.7332 9.332,42.2142 -13.669,66.6972 -15.28,16.2655 -27.783,43.2144 -27.783,59.8863 0,45.7506 -35.471,121.2658 -63.769,135.7589 -41.909,21.4641 -104.661,27.4806 -151.513,14.5265 z"
     id="path4240"
     inkscape:connector-curvature="0" />
  <path
     style="fill:#0044aa"
     d="m -355.21093,7054.1474 c -30.844,-0.4397 -68.926,12.099 -102.19,35.5976 -62.258,43.9807 -149.491,73.1299 -166.863,55.7579 -21.703,-21.7029 -95.305,-19.3418 -127.031,4.0742 -21.266,15.6957 -23.14,23.0201 -9.446,36.9043 9.398,9.5274 17.086,28.7998 17.086,42.8261 0,14.0263 6.267,37.2144 13.928,51.5293 11.946,22.3205 18.897,23.7629 48.803,10.1368 32.397,-14.7613 39.412,-10.9778 98.838,53.2949 35.181,38.0502 88.569,81.7271 118.64,97.0605 54.741,27.9126 105.879,75.9805 148.258,139.3555 l 22.6,33.7968 0,-35.539 c 0,-19.5468 9.172,-43.1515 20.382,-52.4551 17.411,-14.4493 11.929,-22.9023 -37.589,-57.9785 -86.379,-61.1851 -201.493,-177.2217 -201.493,-203.1055 0,-12.4924 8.863,-30.0677 19.694,-39.0566 15.962,-13.2475 36.83,-3.2066 110.166,53.002 49.761,38.1395 103.221,69.3437 118.799,69.3437 41.498,0 115.389,85.1739 126.783,146.1406 12.181,65.1811 26.149,82.1953 76.570001,93.2695 39.793,8.74 56.1300003,49.7585 26.99,67.7676 -7.189,4.4433 -9.606,17.1086 -5.371,28.1445 10.074,26.2525 44.4460003,25.7793 54.627001,-0.7519 4.394,-11.4495 1.597,-46.003 -6.217,-76.7852 -16.3350007,-64.355 -9.2760007,-93.5752 22.754,-94.1952 12.352,-0.2391 34.398,-9.4644 48.991,-20.502 14.593,-11.0376 37.658998,-20.0684 51.256998,-20.0684 13.599,0 24.725,-6.8039 24.725,-15.1191 0,-8.3153 14.426,-26.4662 32.059,-40.3359 17.632,-13.8697 42.877,-53.5434 56.099,-88.1641 21.341,-55.8808 21.757,-65.546 3.705,-86.0996 -11.184,-12.7339 -33.785,-49.8989 -50.226,-82.5879 -24.793,-49.2951 -34.976,-58.0705 -59.686,-51.4434 -16.385,4.3946 -55.718998,8.0731 -87.407998,8.1758 -44.1870007,0.1431 -68.352001,9.6147 -103.678001,40.6309 -61.481001,53.9809 -157.860001,75.8441 -219.957001,49.8984 -61.225,-25.5815 -69.925,-43.5382 -41.849,-86.3867 22.371,-34.1427 22.277,-36.7366 -1.973,-54.4687 -10.451,-7.6423 -24.621,-11.4338 -40.777,-11.6641 z m -305.704,441.541 c -3.497,0.145 -6.937,1.9032 -9.775,5.3223 -7.181,8.6528 -5.595,41.3116 2.924,60.1992 4.027,8.9273 9.564,16.2304 12.305,16.2304 12.067,0 17.776,-59.2722 7.168,-74.4179 -3.531,-5.0409 -8.124,-7.5204 -12.622,-7.334 z m 244.764,163.9941 c -1.847,-0.011 -3.773,-0.01 -5.783,0.012 -44.067,0.3784 -45.841,2.8517 -14.461,20.1738 14.703,8.1162 33.055,16.6516 40.783,18.9688 22.693,6.8041 36.07,-6.5276 24.408,-24.3262 -7.346,-11.2123 -17.236,-14.6676 -44.947,-14.8281 z"
     id="path4242"
     inkscape:connector-curvature="0" />
  <path
     style="fill:#0044aa"
     d="m -456.61193,7856.0307 c -15.036,-11.6759 -38.525,-21.4246 -52.197,-21.6637 -22.755,-0.3979 -24.074,-9.9848 -15.583,-113.2016 5.102,-62.0218 13.548,-134.2952 18.767,-160.6074 10.753,-54.205 22.017,-56.3167 193.285,-36.2371 85.639,10.0404 91.225,8.8769 126.436,-26.3337 29.497,-29.4973 36.777,-49.4046 36.534,-99.9006 -0.327,-67.8255 -24.66,-109.621 -80.526,-138.3178 -32.958,-16.9291 -32.938,-16.9651 20.503,-36.8845 29.421,-10.9663 68.87,-23.2752 87.664,-27.3529 18.795,-4.0778 61.395001,-28.2368 94.667001,-53.6868 59.654001,-45.6284 60.891001,-45.914 88.847001,-20.5185 37.316,33.8977 87.342998,59.3302 136.678998,69.4842 55.591,11.4414 57.166,31.2897 7.019,88.4048 -37.132,42.2903 -40.684,52.387 -25.057,71.2165 23.605,28.4421 53.742,116.23 44.844,130.6274 -3.792,6.1355 -35.917,11.1554 -71.39,11.1554 -64.718998,0 -125.252998,28.274 -125.252998,58.503 0,8.7706 -35.6250007,49.9406 -79.168001,91.4887 -49.550001,47.2814 -84.153001,93.4395 -92.494001,123.3826 -16.861,60.5274 -75.675,91.2306 -197.393,103.0463 -69.323,6.7295 -94.854,3.9598 -116.184,-12.6043 z"
     id="path4244"
     inkscape:connector-curvature="0" />
  <path
     style="fill:#217844"
     d="m 148.22707,8166.3527 c -9.13,-11.0938 -26.681,-72.0119 -33.216,-115.2909 -2.554,-16.9151 -8.821,-40.9048 -13.926,-53.3105 -13.597998,-33.0433 -81.886998,-134.3803 -127.011999,-188.4782 -29.261,-35.0789 -44.494,-61.6054 -60.023,-104.5217 -28.178001,-77.8743 -30.589001,-81.9202 -109.267001,-183.3524 -72.491,-93.4557 -83.727,-113.192 -151.235,-265.6448 l -41.972,-94.7858 17.762,-35.1061 c 25.293,-49.9907 51.993,-161.1663 51.993,-216.4903 0,-39.99 -2.457,-49.3602 -17.693,-67.4673 -9.731,-11.5651 -21.662,-21.0274 -26.512,-21.0274 -4.849,0 -26.456,8.0753 -48.015,17.9452 -46.347,21.2185 -91.473,19.4705 -131.2,-5.0822 -21.049,-13.009 -27.192,-13.9543 -46.146,-7.1006 -33.062,11.9554 -92.123,9.3988 -124.716,-5.3984 -24.422,-11.0877 -29.771,-17.3618 -36.287,-42.5647 -13.035,-50.4125 -14.149,-53.0079 -31.719,-73.8887 -23.895,-28.3978 -39.998,-129.3033 -23.299,-146.0019 13.392,-13.3917 50.945,-7.507 81.448,12.7629 43.624,28.989 101.812,31.7939 154.945,7.4688 68.329,-31.282 153.025,-23.5425 289.909,26.492 62.881,22.9845 95.756,20.8225 141.212,-9.2866 48.183001,-31.9148 85.808001,-26.0944 112.711001,17.436 14.7060003,23.7945 75.734001,74.1002 113.376001,93.456 28.943998,14.883 45.921998,14.1869 80.975998,-3.3202 39.525,-19.7395 54.985,-14.0467 93.414,34.3974 38.351,48.3462 58.229,63.8131 135.602,105.5143 l 58.49,31.5238 37.191,-27.9529 c 46.965,-35.2989 138.976,-81.8713 163.105,-82.5574 26.313,-0.7481 125.76,33.1865 180.61,61.6302 59.322,30.7633 73.66598,54.6956 59.304,98.9474 -16.037,49.4132 -11.979,98.0976 12.64598,151.7287 12.046,26.2357 28.361,54.5771 36.256,62.9809 12.25,13.0392 13.731,20.5865 10.102,51.4687 -4.968,42.2666 0.01,54.2221 46.26705,111.0071 47.338,58.1186 49.404,67.1358 24.097,105.2204 -13.089,19.6986 -19.951,37.5388 -18.141,47.1632 3.787,20.1352 -15.78205,25.3302 -72.50905,19.2494 -63.34598,-6.7903 -108.14298,-21.551 -141.15498,-46.5105 -16.287,-12.3148 -35.905,-27.0039 -43.594,-32.6422 -10.034,-7.3573 -33.387,-10.4711 -82.717,-11.0291 -103.18,-1.1671 -147.793,-25.4243 -211.843,-115.1821 -16.966,-23.7756 -43.86,-52.7982 -59.765,-64.4947 l -28.918,-21.2665 -32.753,32.2599 c -18.013,17.743 -32.752,34.5959 -32.752,37.4509 0,2.855 18.495,33.3568 41.099,67.7816 22.605,34.4249 42.959,70.6479 45.232,80.4955 6.054,26.2312 35.197,74.7182 49.514,82.3804 8.847,4.735 16.705,3.6179 27.44,-3.901 18.701,-13.0989 34.911,-7.6312 34.911,11.7756 0,8.078 11.94,26.6273 26.534,41.2207 20.713,20.7127 31.78,26.5334 50.451,26.5334 24.965,0 38.98,-9.6373 127.234,-87.4918 l 41.074,-36.2341 -3.768,23.2161 c -6.775,41.7513 30.246,86.4833 98.305,118.7793 12.139,5.7601 32.907,22.4675 46.151,37.1275 31.63698,35.0185 32.12098,61.8599 1.869,103.6367 -12.216,16.8703 -39.126,54.8805 -59.8,84.4671 -55.44,79.3399 -85.768,107.8003 -129.853,121.8575 -42.238,13.4679 -73.992,32.4462 -128.3,76.6808 -51.153,41.6646 -75.805,56.2394 -158.743,93.8529 -150.353,68.1865 -245.84,94.0006 -264.381,71.4727 z"
     id="path4250"
     inkscape:connector-curvature="0" />
  <path
     style="fill:#aa4400"
     d="m -100.93293,7611.6628 c -147.143,-84.5311 -160.66,-89.4678 -268.392,-98.0244 -93.813,-7.4511 -123.188,-15.762 -169.743,-48.0246 -94.946,-65.7977 -102.312,-81.9272 -100.144,-219.3002 1.059,-67.1603 9.158,-140.5624 17.996,-163.1158 20.408,-52.0777 67.316,-102.538 95.226,-102.4392 50.309,0.1781 127.981,31.545 170.452,68.8346 26.657,23.4054 75.404,46.9499 117.162,56.5889 68.921,15.9088 72.442,15.2963 97.193,-16.9075 14.125,-18.3778 25.818,-47.2538 25.986,-64.1689 0.255,-25.8472 7.772,-30.7546 47.111001,-30.7546 25.744,0 94.942001,19.2829 153.773001,42.8509 95.517998,38.2649 126.172998,43.5856 286.438998,49.7164 l 179.474,6.8656 22.381,46.9334 c 21.416,44.911 21.11,48.7177 -7.102,88.3378 l -29.483,41.4044 56.58,106.1875 c 31.118,58.4032 56.579,116.0638 56.579,128.1347 0,49.5872 -69.33,63.6554 -313.702,63.6554 l -233.047,0 0,44.8028 c 0,26.4237 -10.212998,53.5474 -24.895998,66.1197 -23.02,19.7103 -36.576,14.6078 -179.843002,-67.6969 z"
     id="path4224"
     inkscape:connector-curvature="0" />
  <path
     style="fill:#217844"
     d="m -99.465929,7852.475 c -33.084001,-45.6707 -64.818001,-64.0256 -177.770001,-102.8215 -70.509,-24.2181 -91.911,-24.6227 -143.948,-2.7207 -22.327,9.3973 -41.891,17.0859 -43.476,17.0859 -1.586,0 -4.963,-8.2902 -7.506,-18.4227 -2.544,-10.1324 -13.622,-28.6707 -24.62,-41.1961 -24.35,-27.734 -51.39,-79.121 -43.154,-82.0128 28.773,-10.1038 40.346,-21.1711 42.231,-40.3889 2.872,-29.2711 -25.35,-61.5258 -62.37,-71.2801 -34.271,-9.0304 -78.556,-33.8975 -110.831,-62.235 -17.738,-15.5742 -23.648,-26.239 -23.648,-42.6699 0,-29.3928 11.591,-42.6023 45.046,-51.3345 15.379,-4.014 33.729,-13.6722 40.78,-21.4627 11.689,-12.9161 11.919,-15.78 2.613,-32.492 -15.111,-27.1355 -71.717,-62.7508 -99.735,-62.7508 -12.882,0 -35.444,6.134 -50.14,13.6311 -31.365,16.0011 -53.969,10.7427 -82.497,-19.1918 -9.624,-10.0978 -34.996,-33.1452 -56.384,-51.2166 -28.222,-23.8466 -38.886,-37.5578 -38.886,-49.9984 0,-29.6179 11.912,-43.5802 37.18,-43.5802 19.878,0 25.367,-3.9867 40.096,-29.1195 10.152,-17.323 28.737,-35.6794 45.877,-45.3128 36.82,-20.694 81.145,-17.1203 167.821,13.5305 56.895,20.12 63.982,21.1183 105.419,14.8507 33.922,-5.1309 52.501,-4.479 78.595,2.7578 67.835,18.8129 80.445,18.7122 119.252,-0.9528 l 36.271,-18.38 -28.87,-29.4165 c -26.606,-27.1097 -28.178,-30.6834 -20.044,-45.5734 4.855,-8.8864 10.533,-28.435 12.618,-43.4414 l 3.792,-27.2843 123.018,-32.4232 c 171.458001,-45.1901 184.492001,-46.3329 230.196002,-20.1834 35.898,20.5388 154.709998,55.9176 187.786998,55.9176 9.173,0 26.152,-4.8995 37.732,-10.8878 19.457,-10.0617 23.086,-9.9715 47.838,1.1898 14.73,6.6426 35.628,22.1521 46.44,34.4655 10.811,12.3134 40.645,33.0516 66.298,46.0851 41.609,21.1405 118.402,89.7413 118.402,105.7715 0,7.662 46.61,50.1229 85.52,77.9075 45.365,32.3935 107.622,98.683 119.08,126.7918 12.653,31.0435 1.659,52.9602 -33.655,67.09 -39.087,15.6397 -42.566,35.6835 -14.871,85.6785 25.019,45.1638 26.604,62.4903 8.441,92.2771 -24.222,39.7237 -127.193,97.4496 -174.766,97.9749 -20.347,0.2248 -92.264,36.5677 -92.264,46.6251 0,2.8844 15.558,20.5061 34.574,39.1593 35.19,34.5196 65.349,76.3742 59.352,82.3707 -1.822,1.8225 -11.311,-0.3307 -21.087,-4.7845 -14.185,-6.4632 -25.263,-5.9675 -54.87,2.4548 l -37.096,10.5531 -16.066,-24.6205 c -8.836,-13.5414 -26.308,-30.5662 -38.827,-37.8329 l -22.761,-13.2124 -38.748,38.1071 c -48.692,47.8874 -63.442,51.666 -124.741,31.9556 -63.687998,-20.4784 -92.070998,-13.2233 -122.757998,31.3787 -23.839,34.6484 -61.176001,62.086 -93.202001,68.4913 -19.487,3.8974 -23.522,1.5432 -42.678,-24.9009 z"
     id="path4252"
     inkscape:connector-curvature="0" />
  <path
     style="fill:#217844"
     d="m 771.29207,8081.3879 c -22.112,-25.1865 -68.805,-67.2917 -103.763,-93.5674 -34.957,-26.2756 -63.559,-52.1592 -63.559,-57.5189 0,-5.3599 -7.086,-16.5181 -15.747,-24.7962 -8.661,-8.278 -22.446,-24.6749 -30.632,-36.4375 -8.897,-12.7818 -36.268,-32.5108 -68.03,-49.0354 -29.23,-15.2068 -65.714,-39.6053 -81.076,-54.2186 -15.361,-14.6134 -39.43,-32.0269 -53.485,-38.6966 -24.855,-11.7941 -26.476,-11.7311 -59.084,2.2968 -32.08,13.8 -35.083,13.953 -69.477,3.5383 -106.155,-32.1442 -125.332,-39.1648 -144.678998,-52.9652 -32.692,-23.3202 -82.8740007,-19.083 -222.655002,18.8004 -150.685,40.8386 -157.271,44.0949 -157.271,77.7692 0,14.2207 -4.433,31.8256 -9.851,39.122 -12.618,16.9931 -26.896,9.1336 -54.644,-30.0793 -19.773,-27.9435 -19.904,-28.7186 -8.775,-52.055 10.494,-22.0062 10.496,-24.4896 0.03,-34.9565 -9.278,-9.2775 -19.493,-10.4568 -57.845,-6.6776 -55.635,5.4821 -69.529,-0.1832 -38.479,-15.6896 15.483,-7.7325 23.275,-16.8793 24.681,-28.9711 2.509,-21.5899 -5.62,-28.4833 -51.078,-43.3086 -49.512,-16.148 -53.167,-22.5551 -35.566,-62.3469 l 14.59,-32.9821 -20.518,-38.0298 c -11.286,-20.9164 -22.343,-50.1188 -24.572,-64.8941 -2.229,-14.7754 -17.804,-49.1465 -34.611,-76.3804 -40.904,-66.2802 -50.687,-99.0439 -36.183,-121.1786 5.98,-9.1272 46.406,-41.8021 89.835,-72.6109 43.43,-30.8089 78.963,-58.5575 78.963,-61.6635 0,-3.1061 -10.897,-18.6894 -24.214,-34.6297 -25.679,-30.7354 -40.019,-53.8784 -35.922,-57.975 1.365,-1.3647 29.906,3.5119 63.425,10.8368 78.469,17.1477 117.036,17.451 125.846,0.9897 8.849,-16.5349 3.943,-22.6285 -41.562,-51.621 -44.838,-28.5674 -60.236,-47.5504 -60.236,-74.2585 0,-27.3266 20.021,-43.5884 60.233,-48.9226 47.433,-6.2922 73.236,5.7419 113.588,52.9748 18.079,21.161 36.173,38.4746 40.209,38.4746 4.036,0 15.558,-7.8744 25.603,-17.4987 10.25,-9.8193 35.778,-22.0719 58.171,-27.9196 21.949,-5.7316 51.172001,-16.168 64.940001,-23.1921 l 25.034,-12.7712 23.102,28.3152 c 39.737001,48.704 46.395001,61.3262 42.534001,80.6323 -5.321,26.6032 23.536,47.6121 65.398,47.6121 37.419998,0 47.357998,6.1037 119.303998,73.2719 60.704,56.6735 99.828,85.0359 132.779,96.2594 12.393,4.221 30.492,13.9352 40.219,21.587 9.728,7.6518 23.316,13.9124 30.196,13.9124 15.603,0 62.212,40.0692 56.798,48.8284 -2.191,3.5449 -0.15,11.0641 4.535,16.7093 4.685,5.6452 8.127,20.6861 7.648,33.4243 -0.747,19.8646 3.96,27.2048 33.076,51.5823 18.671,15.632 33.947,32.9852 33.947,38.5627 0,19.4863 38.396,50.0957 62.84,50.0957 29.906,0 109.393,22.1879 131.59,36.7321 12.245,8.023 17.435,17.4963 17.435,31.8243 0,17.4464 3.988,21.9966 27.537,31.419 23.025,9.2127 40.806,26.0885 40.806,38.7277 0,1.603 -14.641,4.6486 -32.537,6.768 -43.129,5.1081 -110.984,30.898 -110.984,42.1824 0,4.9379 35.368,48.0594 78.595,95.8255 43.227,47.7662 78.595,90.8561 78.595,95.7555 0,10.0858 -30.23,37.4252 -77.385,69.9837 -17.58,12.1389 -31.965,26.1346 -31.965,31.1014 0,4.9667 14.132,15.8959 31.403,24.2871 38.448,18.6792 100.601,75.9895 126.832,116.9493 30.48098,47.5943 25.21198,63.7579 -21.547,66.1017 -13.157,0.6595 -30.279,3.2665 -38.05,5.7936 -11.445,3.7218 -21.767,-4.1049 -54.334,-41.1987 z"
     id="path4254"
     inkscape:connector-curvature="0" />
  <path
     style="fill:#217844"
     d="M 109.38207,8244.1325 C 87.101072,8209.216 67.578072,8192.3618 21.249072,8168.0481 l -39.389001,-20.6715 39.389001,-26.893 c 57.755,-39.4327 72.86,-57.6672 67.026,-80.9133 -2.837,-11.3016 -36.953,-51.6476 -83.6710007,-98.9478 l -78.8820003,-79.8652 45.966,-14.1974 c 25.2820003,-7.8087 54.617001,-14.1975 65.191001,-14.1975 29.399,0 40.845,-6.7609 40.845,-24.1258 0,-19.1819 -35.258,-56.118 -56.442,-59.1274 -11.6889997,-1.6606 -16.1290007,-7.8179 -18.7360007,-25.9841 -4.543,-31.6509 -40.5390003,-51.5532 -123.2520013,-68.1462 -65.258,-13.0913 -91.781,-28.4649 -86.164,-49.9438 2.333,-8.9224 -4.999,-18.587 -25.208,-33.2244 -34.015,-24.6367 -35.709,-27.4548 -41.779,-69.4945 -5.786,-40.0672 -34.705,-75.7255 -70.782,-87.2783 -13.908,-4.4536 -35.078,-15.4055 -47.043,-24.3375 -11.966,-8.932 -25.972,-16.24 -31.125,-16.24 -17.475,0 -73.767,-40.7714 -131.918,-95.546 -74.062,-69.7623 -86.428,-77.7172 -114.192,-73.4618 -29.081,4.4574 -72.406,-12.4952 -61.023,-23.878 14.144,-14.1445 8.889,-28.1747 -29.835,-79.6503 -20.834,-27.6939 -36.767,-53.6912 -35.407,-57.7717 3.865,-11.5939 66.412,-30.6768 123.968,-37.8224 57.747,-7.1693 68.755,-13.2946 82.345,-45.8201 8.395,-20.0918 13.702,-23.086 59.406,-33.517 27.603,-6.2998 91.834,-13.6432 142.736,-16.3186 78.655,-4.1341 96.097,-7.1323 116.184,-19.9713 78.119,-49.9321 143.665,-59.0994 208.162001,-29.1139 29.474,13.7022 49.678,16.5636 146.939001,20.8093 108.755998,4.7475 154.867998,13.8149 166.572998,32.7543 2.32,3.7529 -11.374,22.4973 -30.431,41.6542 -46.972,47.2201 -44.138,58.8495 14.341,58.8495 26.84,0 46.366,3.2157 49.547,8.1598 2.888,4.4879 31.38,23.9423 63.315,43.2321 l 58.064,35.0722 -14.722,20.6744 c -8.096,11.371 -23.582,23.7635 -34.413,27.539 -20.277,7.0689 -33.071,23.625 -33.071,42.7972 0,6.0123 24.503,36.9453 54.452,68.74 29.948,31.7946 66.144,75.4779 80.435,97.0741 19.942,30.136 35.82,44.6977 68.29,62.6276 l 42.306,23.3619 -3.893,28.4037 c -3.556,25.943 -1.473,31.2004 24.045,60.6843 l 27.939,32.2806 -10.841,27.0951 c -11.72,29.2893 -8.099,61.2705 6.935,61.2705 12.38,0 43.506,25.0427 52.867,42.5334 7.244,13.5355 6.331,13.9386 -21.495,9.4891 -27.925,-4.4654 -30.231,-3.4255 -59.008,26.6083 -28.878,30.1383 -31.495,31.3087 -73.242,32.7483 -24.418,0.8421 -48.195,5.5599 -54.533,10.8202 -12.955,10.7513 -14.804,35.5268 -3.495,46.8351 4.259,4.259 8.859,25.6334 10.223,47.4988 3.516,56.3691 3.563,58.3709 1.809,77.3442 -0.868,9.3972 -0.291,21.5164 1.283,26.9315 1.691,5.8197 -2.728,10.8191 -10.807,12.2262 -36.872,6.4218 -45.974,10.4613 -68.877,30.5703 -13.586,11.9295 -27.406,28.8001 -30.71,37.4902 -4.851,12.7594 -11.105,15.8002 -32.494,15.8002 -14.568,0 -36.42,-3.4626 -48.56,-7.6947 -26.499,-9.2374 -46.229,-0.8879 -68.233,28.8751 l -14.517,19.6348 24.424,48.4991 c 27.063,53.7404 24.754,67.8759 -11.086,67.8759 -11.842,0 -28.548,8.0065 -42.781,20.5031 -12.843,11.2767 -26.751,20.5031 -30.906,20.5031 -4.155,0 -14.914,-11.533 -23.909,-25.6288 z"
     id="path4256"
     inkscape:connector-curvature="0" />
  <path
     style="fill:#217844"
     d="m 286.17207,7764.0862 c -45.107,-6.9566 -105.078,-17.8293 -133.27,-24.1615 -28.192,-6.3323 -75.861998,-13.6072 -105.932998,-16.1663 -69.950001,-5.9529 -90.005001,-16.9112 -157.190002,-85.8898 -61.403,-63.0424 -74.806,-72.0462 -107.246,-72.0462 -12.494,0 -37.159,-7.6886 -54.811,-17.0859 -47.868,-25.4819 -74.219,-22.9595 -107.1,10.2516 l -27.066,27.3374 -68.103,0 -68.104,0 -4.745,-31.6453 c -6.784,-45.2344 -16.332,-62.364 -44.112,-79.1364 -13.451,-8.1208 -64.832,-41.5113 -114.18,-74.2012 -49.349,-32.6899 -111.851,-71.063 -138.894,-85.2735 -39.591,-20.8043 -54.262,-33.2767 -75.317,-64.0268 -14.381,-21.0041 -49.525,-63.9166 -78.097,-95.3611 -28.57197,-31.4444 -51.94897,-61.3889 -51.94897,-66.5433 0,-5.1543 10.295,-13.6731 22.878,-18.9306 22.966,-9.596 52.29997,-47.7421 52.29997,-68.0123 0,-9.4918 -36.08897,-33.829 -112.76697,-76.0463 -20.103,-11.0682 -19.436,-11.2109 34.172,-7.3115 148.96497,10.8358 293.82897,16.601 424.57897,16.8972 166.385,0.3769 166.082,0.3086 278.261,62.8245 72.502,40.4041 75.621,41.4409 109.622,36.4412 19.249,-2.8304 76.517,-5.5803 127.262,-6.1109 103.6650013,-1.084 130.035002,-9.239 142.138002,-43.9569 5.518,-15.8296 11.762,-20.4517 30.595,-22.6504 71.708998,-8.3717 266.261998,21.598 366.830998,56.5082 66.666,23.1415 81.89,24.9788 273.725,33.035 133.641,5.6124 142.488,6.848 191.785,26.7862 28.42498,11.4962 64.56198,22.9619 80.30398,25.4792 15.742,2.5173 28.62205,6.2664 28.62205,8.3314 0,2.065 -9.99505,12.1361 -22.21105,22.3801 -12.217,10.2441 -20.674,19.7371 -18.795,21.0955 1.88,1.3585 21.101,10.8515 42.71505,21.0955 21.614,10.2441 39.297,21.7344 39.297,25.5342 0,4.0743 -22.23,6.9086 -54.18605,6.9086 -74.158,0 -89.11098,16.1026 -66.097,71.1814 l 9.569,22.9018 -57.26798,-3.5728 c -34.523,-2.1537 -60.717,-0.7861 -65.953,3.4434 -4.776,3.8588 -22.524,9.2493 -39.439,11.9787 -16.915,2.7295 -34.599,8.067 -39.297,11.8611 -14.284,11.5342 -9.636,36.1424 11.96,63.3169 11.276,14.1898 20.503,27.2016 20.503,28.915 0,1.7134 -29.201,0.926 -64.89,-1.7498 -74.409,-5.5787 -89.375,-0.027 -108.483,40.2402 -10.941,23.0561 -10.787,25.2501 3.893,55.4659 18.69,38.4697 12.158,54.4781 -22.648,55.5055 -12.735,0.3759 -32.381,5.739 -43.658,11.918 -11.276,6.179 -29.197,11.2535 -39.823,11.2766 -12.202,0.027 -26.68,7.4022 -39.297,20.0195 -27.784,27.7837 -26.542,54.9211 4.582,100.112 35.893,52.1141 31.534,60.7366 -31.468,62.2532 -28.151,0.6776 -88.089,-4.4597 -133.196,-11.4162 z M -79.465929,7251.4419 c 0,-3.7589 -7.689,-6.8343 -17.086,-6.8343 -9.397001,0 -17.086001,3.0754 -17.086001,6.8343 0,3.7589 7.689,6.8344 17.086001,6.8344 9.397,0 17.086,-3.0755 17.086,-6.8344 z"
     id="path4258"
     inkscape:connector-curvature="0" />
  <path
     style="fill:#217844"
     d="m -188.81593,8424.8856 c 0,-13.1986 -8.252,-35.6083 -19.843,-53.8858 l -19.844,-31.2904 33.798,-33.2655 c 39.369,-38.7487 45.198,-54.7659 30.366,-83.4477 -5.945,-11.4948 -10.808,-33.4202 -10.808,-48.7231 0,-23.3317 -2.869,-29.1304 -17.77,-35.9199 -18.106,-8.2494 -25.073,-6.6194 -95.5,22.3414 -11.554,4.7509 -28.469,6.7529 -37.589,4.4487 -24.394,-6.1629 -86.349,-47.3445 -76.383,-50.7726 16.209,-5.5759 8.417,-20.6739 -29.576,-57.3083 -20.966,-20.2154 -44.352,-45.368 -51.969,-55.8948 l -13.85,-19.1396 38.3,-40.1537 c 41.743,-43.7631 45.618,-57.3588 24.135,-84.67 -15.726,-19.9928 -35.263,-22.4762 -61.013,-7.7561 -24.047,13.7466 -57.741,12.5313 -87.41,-3.1528 -47.547,-25.135 -47.031,-23.9883 -23.071,-51.2775 25.95,-29.556 21.214,-47.8266 -14.189,-54.7392 -12.248,-2.3913 -30.514,-5.9144 -40.591,-7.8291 -21.79,-4.1401 -29.416,-12.6931 -35.84,-40.1916 -2.634,-11.2767 -13.822,-31.8557 -24.862,-45.7312 -35.7,-44.8669 -23.442,-80.9061 30.835,-90.6551 14.844,-2.6661 33.212,-9.2066 40.818,-14.5343 7.607,-5.3278 23.374,-9.6868 35.038,-9.6868 23.568,0 50.929,-23.6688 50.929,-44.0571 0,-6.8319 -6.309,-22.6285 -14.019,-35.1035 -12.943,-20.9433 -13.225,-24.2159 -3.67,-42.6932 5.692,-11.0063 15.327,-21.9218 21.412,-24.2567 6.085,-2.335 43.104,-4.2454 82.265,-4.2454 81.501,0 86.81,-5.01 50.421,-47.5823 -31.679,-37.0626 -25.182,-54.9331 19.973,-54.9331 10.217,0 22.357,-3.7795 26.976,-8.399 5.639,-5.6385 27.989,-7.8565 68.002,-6.7485 74.422,2.0609 83.922,-2.7561 67.086,-34.0187 -6.75,-12.5341 -11.195,-30.4341 -9.878,-39.7778 2.319,-16.4473 4.31,-17.0516 62.514,-18.9678 46.029,-1.5155 61.048,-4.4 64.082,-12.3079 4.915,-12.8068 -19.73,-39.921 -46.281,-50.9189 -10.905,-4.5171 -19.828,-10.4971 -19.828,-13.2887 0,-2.7917 12.444,-13.6995 27.653,-24.2396 23.237,-16.1029 36.528,-19.6776 83.209001,-22.3799 30.555,-1.7688 85.44200026,0.7397 121.971001,5.5746 64.905998,8.5905 66.993998,8.4346 91.723998,-6.8497 23.412,-14.4693 30.166,-15.2987 90.207,-11.0782 96.343,6.7722 294.948,41.91 388.273,68.6945 45.107,12.9457 109.307,28.5048 142.668,34.5758 33.361,6.071 80.628,18.5556 105.038,27.7435 33.547,12.6274 57.94698,16.742 99.95098,16.8554 39.833,0.1076 63.31205,3.7821 82.90805,12.9754 29.855,14.0063 64.926,44.5159 64.926,56.4811 0,13.9168 -96.153,0.699 -179.32505,-24.651 -44.12498,-13.4489 -83.50998,-24.4525 -87.52298,-24.4525 -9.32,0 -45.636,38.9988 -57.921,62.1988 -14.152,26.7278 -0.05,41.0566 69.931,71.0418 87.27898,37.3986 91.84998,41.6166 50.413,46.5242 -46.412,5.4968 -83.541,26.0035 -113.684,62.7887 -29.701,36.2457 -47.266,42.3755 -88.415,30.8544 -23.975,-6.7124 -37.444,-6.6665 -66.358,0.2261 -75.623,18.0272 -128.542,49.6296 -128.542,76.7632 0,21.0969 25.493,51.0676 67.976,79.9178 48.171,32.7116 72.494,60.6183 94.432,108.3431 13.922,30.2855 15.821,41.6609 11.406,68.3436 -2.912,17.6059 -4.865,34.0294 -4.338,36.4967 0.526,2.4673 3.033,29.3776 5.57,59.8007 4.597,55.1207 4.556,55.3138 -11.747,55.0724 -22.309,-0.3301 -36.714,-9.5994 -95.215,-61.267 -101.613,-89.7449 -132.082,-120.6115 -164.653,-166.805 -40.858,-57.947 -41.504,-69.5908 -9.363,-169.011 13.156,-40.696 23.92,-81.296 23.92,-90.2222 0,-20.3531 -42.68,-77.1452 -62.766,-83.5205 -11.378,-3.6111 -18.86,-0.3144 -30.806,13.5731 -8.678,10.0885 -15.778,22.7259 -15.778,28.083 0,20.7825 -33.581,19.1799 -78.774,-3.7593 -49.873,-25.3143 -82.331,-25.1232 -109.761,0.6462 -17.974,16.8854 -30.501998,67.1452 -25.173998,100.993 3.234,20.5453 2.179,22.4979 -10.057,18.6143 -17.168,-5.4489 -236.067002,-17.2662 -323.863002,-17.4838 l -65.807,-0.1631 -44.517,47.1901 c -31.355,33.2379 -48.863,58.8072 -59.218,86.482 -17.828,47.6498 -30.224,102.9569 -25.711,114.7168 1.823,4.7494 22.863,19.2338 46.757,32.1876 42.131,22.8406 45.747,23.5524 119.635,23.5524 75.509,0 76.457,0.201 105.932,22.4257 47.76,36.0111 56.842,39.0605 86.844001,29.1588 33.138,-10.9364 44.45,-5.3679 83.2600013,40.9868 16.0439997,19.1632 53.0189997,52.9959 82.1669997,75.1838 61.086998,46.5021 84.107998,72.6425 77.557998,88.069 -12.398,29.2 -9.086,39.2131 28.167,85.1476 38.885,47.9469 41.145,62.2385 9.127,57.7083 -16.725,-2.3663 -35.139,-27.0257 -80.956,-108.4093 -31.999998,-56.8417 -106.144998,-146.9769 -142.282999,-172.9681 -22.733,-16.3501 -31.918,-19.5295 -40.599,-14.0535 -19.092,12.0429 -17.292,21.4632 9.916,51.8909 45.7350003,51.1464 44.7590003,48.3161 50.3170003,145.9903 5.887,103.4693 1.004,151.798 -21.3210003,211.019 -21.84,57.9352 -38.267,72.1884 -83.199001,72.1884 -23.247,0 -45.469,4.918 -61.82,13.6819 l -25.528,13.6821 0,-22.5956 z"
     id="path4260"
     inkscape:connector-curvature="0" />
  <path
     style="fill:#217844"
     d="m 1044.7861,7638.3241 c -87.44605,-30.3599 -118.28805,-50.7591 -196.97803,-130.2814 -38.259,-38.6638 -82.974,-77.0847 -99.367,-85.3799 -42.485,-21.4995 -120.001,-36.3197 -161.439,-30.8655 -38.068,5.0108 -92.382,26.2308 -92.382,36.0929 0,3.4968 7.802,20.3168 17.337,37.3777 20.962,37.5051 27.99,90.1534 15.248,114.2232 -5.363,10.1314 -20.095,20.727 -36.192,26.0314 -23.053,7.5961 -32.885,7.3384 -65.185,-1.7086 -52.059,-14.5814 -112.312,-13.4472 -160.159,3.0147 -55.143,18.9717 -83.408,17.3347 -192.232998,-11.1335 -66.5040007,-17.3975 -113.682001,-25.5323 -158.020001,-27.2477 -56.034001,-2.1679 -68.618001,-5.1686 -110.835001,-26.4286 -62.952,-31.7023 -143.162,-58.2087 -176.142,-58.2087 -20.386,0 -30.976,4.6064 -45.54,19.8078 -20.095,20.9745 -18.561,34.847 6.119,55.329 30.411,25.2388 -48.422,27.1855 -140.055,3.4583 -104.815,-27.1405 -176.926,-19.4282 -214.633,22.9551 -7.161,8.0487 -15.324,14.6339 -18.142,14.6339 -7.816,0 -47.434,-73.2358 -47.434,-87.6839 0,-6.9921 6.263,-18.3804 13.917,-25.3071 12.01,-10.8696 16.99,-11.4826 36.365,-4.4765 12.347,4.4648 34.009,8.1178 48.136,8.1178 22.463,0 30.63,-5.147 65.071,-41.0062 21.661,-22.5534 43.714,-41.0233 49.006,-41.0442 5.292,-0.021 21.454,-3.3237 35.916,-7.3393 22.51,-6.2505 25.682,-9.4413 22.04,-22.1735 -2.34,-8.1799 -5.741,-45.1102 -7.559,-82.0675 -1.817,-36.9573 -6.59,-73.3343 -10.606,-80.8378 -13.517,-25.2577 -3.264,-33.0776 43.371,-33.0776 42.198,0 43.927,-0.7251 73.434,-30.7907 26.688,-27.1933 32.774,-30.3114 52.087,-26.6883 33.899,6.3595 49.071,-1.031 45.071,-21.9548 -4.157,-21.7479 -49.809,-70.9221 -65.841,-70.9221 -9.027,0 -10.687,-3.5847 -7.124,-15.3774 2.555,-8.4575 7.375,-18.299 10.712,-21.87 12.462,-13.3382 5.194,-42.2779 -17.921,-71.3557 -22.966,-28.8909 -30.63,-57.261 -17.639,-65.2902 3.418,-2.1124 44.168,21.868 90.555,53.29 46.388,31.4219 93.955,62.0675 105.705,68.1013 23.002,11.8111 38.513,42.2616 46.761,91.7995 l 4.837,29.0461 62.617,-0.075 c 93.809001,-0.1127 111.320001,-4.4287 128.096001,-31.5727 17.8810003,-28.9325 45.755001,-30.7253 92.368001,-5.941 18.909,10.054 43.429998,17.0859 59.579998,17.0859 25.409,0 31.547,4.2185 82.703,56.8403 73.175,75.272 107.894,95.3653 169.677,98.1999 26.086,1.1968 70.985,8.0988 99.774,15.3378 70.067,17.6176 175.947,33.0807 288.131,42.0799 125.328,10.0536 157.18998,13.7341 157.18998,18.1574 0,2.0692 -10.764,16.8984 -23.91998,32.9538 -13.156,16.0553 -23.92,30.7548 -23.92,32.6655 0,1.9107 16.279,12.7881 36.17598,24.172 49.146,28.1182 86.455,33.478 121.87105,17.5077 20.436,-9.2156 30.625,-10.6017 39.028,-5.3098 21.67,13.6457 16.535,29.9683 -22.207,70.5856 -21,22.0156 -38.181,42.9093 -38.181,46.4304 0,7.7526 27.258,41.0624 70.47,86.1169 29.835,31.1071 39.164,46.4498 26.92,44.2709 -2.819,-0.5016 -32.805,-10.5219 -66.635,-22.2672 z"
     id="path4262"
     inkscape:connector-curvature="0" />
  <path
     style="fill:#217844"
     d="m 995.36205,7912.6661 c -3.672,-4.6987 -16.863,-27.9235 -29.315,-51.6108 -23.408,-44.5302 -108.06498,-138.0427 -124.96998,-138.0427 -5.275,0 -18.346,-13.8516 -29.047,-30.7813 -19.74,-31.2283 -60.552,-64.9233 -78.574,-64.8711 -5.437,0.014 -24.85,7.6214 -43.142,16.9015 -36.331,18.4324 -59.006,14.6619 -59.006,-9.8118 0,-16.7809 -32.213,-54.9588 -46.372,-54.9588 -6.042,0 -22.686,8.108 -36.985,18.0179 l -26,18.0177 -32.628,-30.5199 c -17.946,-16.786 -41.779,-36.1799 -52.963,-43.0975 -11.184,-6.9177 -34.463,-27.4331 -51.732,-45.5899 -36.14,-37.9991 -57.25,-42.1968 -80.092,-15.9265 -8.171,9.3973 -21.95,17.0859 -30.62,17.0859 -8.67,0 -19.485,3.7208 -24.033,8.2683 -6.468,6.4682 -12.794,5.5945 -29.058,-4.0126 -11.434,-6.7545 -25.637,-10.4206 -31.562,-8.1469 -10.502,4.0299 -10.601,13.6317 -0.764,74.2682 1.509,9.3018 -6.42,15.1683 -32.651,24.1599 -19.054,6.5313 -43.303,18.6869 -53.888,27.0126 -10.583998,8.3257 -26.281998,15.1377 -34.882998,15.1377 -21.539,0 -56.254,36.6215 -61.5680007,64.9488 -6.03900004,32.1886 -15.6340003,38.6272 -45.3400003,30.4248 -31.178,-8.6085 -60.138,-31.3346 -60.138,-47.1924 0,-16.8738 -16.502001,-29.188 -35.504001,-26.4942 -13.685,1.9399 -16.035,6.6975 -17.899,36.2315 -2.579,40.8583 -10.129,51.4312 -36.729,51.4312 -37.07,0 -46.555,-10.2131 -46.555,-50.1313 0,-19.7899 -3.69,-39.6722 -8.201,-44.1829 -11.347,-11.3468 -37.374,-10.3051 -74.442,2.9793 -19.908,7.1346 -39.969,9.6379 -54.854,6.8454 -30.866,-5.7905 -74.368,-41.8118 -74.368,-61.5799 0,-23.5935 -13.293,-31.6239 -52.349,-31.6239 -35.574,0 -36.422,-0.4948 -81.878,-47.8405 -25.262,-26.3123 -49.533,-47.8405 -53.936,-47.8405 -4.403,0 -28.99,-18.5249 -54.638,-41.1664 -66.231,-58.4675 -120.443,-83.6081 -190.494,-88.3415 -67.667,-4.5722 -79.948,-12.3262 -137.53297,-86.8376 -36.958,-47.8211 -47.412,-56.5643 -96.786,-80.9491 -55.391,-27.3567 -77.331,-41.8199 -77.331,-50.9791 0,-6.9673 88.534,-66.6437 111.503,-75.1586 31.282,-11.5967 85.48997,-8.234 160.59797,9.9625 38.768,9.3923 82.746,17.077 97.729,17.077 25.582,0 67.569,-15.6338 67.569,-25.1592 0,-2.3679 -7.689,-14.3855 -17.086,-26.706 -20.941,-27.455 -20.939,-27.307 -0.4,-40.7653 15.452,-10.1244 20.477,-9.8933 67.927,3.1244 28.183,7.7318 78.339,26.835 111.458,42.4517 54.559,25.7255 67.283,28.9086 135.396,33.8705 50.394,3.6711 98.834,12.4284 146.938,26.5646 101.856,29.932 138.132,32.6697 196.795,14.8515 56.919001,-17.2886 124.1760013,-18.8888 166.276002,-3.956 35.38,12.5493 73.224998,5.1032 105.701998,-20.7968 18.537,-14.783 19.822,-18.8857 18.966,-60.5572 -0.708,-34.4597 -5.056,-52.1029 -18.979,-77.0145 -20.648,-36.9432 -19.232,-39.152 32.193,-50.2142 41.897,-9.0124 63.819,-8.8871 108.677,0.6209 57.456,12.1781 84.208,29.6566 165.232,107.9531 91.023,87.959 118.997,106.5301 197.081,130.8371 32.756,10.1966 79.967,31.43 104.914,47.1854 59.57,37.6215 79.793,40.4864 127.266,18.0282 54.77198,-25.9112 64.99898,-24.2405 68.81798,11.2432 1.72,15.9753 7.314,39.0336 12.432,51.2407 9.223,21.9997 8.992,22.5118 -26.359,58.3069 -19.615,19.8618 -35.664,40.2658 -35.664,45.3423 0,5.0765 5.842,18.8193 12.982,30.5397 19.583,32.1468 33.842,98.3465 30.351,140.911 -4.712,57.4489 -7.939,67.1895 -29.862,90.1294 -32.34498,33.846 -29.06198,39.6493 56.993,100.7448 114.70705,81.4377 135.37205,141.876 62.60205,183.0917 -31.23,17.6879 -39.934,18.9346 -49.22005,7.0496 z"
     id="path4264"
     inkscape:connector-curvature="0" />
  <path
     style="fill:#217844"
     d="m -887.90893,6503.112 c -3.595,0.027 -6.596,1.6198 -10.135,4.3926 -22.761,17.8365 -28.023,30.0233 -26.75,61.9629 1.599,40.1248 -9.493,52.4399 -52.918,58.7558 -27.86397,4.0527 -34.94097,8.5198 -50.78697,32.0469 -10.126,15.0356 -32.767,36.5632 -50.312,47.8398 -17.545,11.2767 -32.068,22.931 -32.272,25.8985 -0.204,2.9675 10.393,21.3803 23.549,40.916 29.526,43.8439 31.097,72.4519 5.967,108.7148 -29.135,42.0409 -127.237,101.209 -168.01,101.3301 -12.366,0.037 -38.576,7.5578 -58.244,16.7148 l -35.76,16.6485 34.217,32.8339 c 22.166,21.2686 38.372,44.4747 46.012,65.8829 11.203,31.3936 15.703,35.4146 89.832,80.3027 55.517,33.6179 84.671,47.2559 101.025,47.2559 32.917,0 64.678,15.156 86.76597,41.4062 16.16,19.2051 18.419,26.562 14.453,47.0625 -2.586,13.3641 -4.326,31.9856 -3.865,41.3828 0.46,9.3973 -2.773,30.2689 -7.186,46.3809 -7.353,26.8466 -6.752,30.648 7.197,45.4961 24.414,25.9875 91.9,58.3506 144.586,69.3359 31.521,6.5723 64.763,19.8345 94.075,37.5293 52.45,31.6639 101.708,47.5129 142.066,45.7109 21.799,-0.9733 36.882,4.06 64.928,21.6661 23.406,14.6936 48.246,24.1165 69.136,26.2285 17.933,1.8129 34.355,6.1271 36.493,9.5859 2.137,3.4588 11.366,-1.7827 20.507,-11.6465 13.929,-15.0287 20.196,-17.1477 38.686,-13.0879 12.136,2.6646 32.774,12.1207 45.863,21.0137 26.192,17.7952 50.45,20.814 61.258,7.625 3.85,-4.6986 15.377,-18.9752 25.615,-31.7266 20.646,-25.7133 63.719,-48.1954 92.776,-48.4257 20.476,-0.1625 144.8500013,59.1846 180.992002,86.3632 41.434,31.1581 53.297,77.8369 32.457,127.7149 -5.638,13.4944 -10.252,35.5006 -10.252,48.9043 0,20.5774 3.699,26.5538 23.767,38.3945 24.340998,14.3611 57.708998,55.8272 85.343998,106.0547 14.149,25.7156 18.595,28.6764 49.127,32.7266 40.027,5.3098 46.759,2.138 46.897,-22.1075 0.158,-27.8765 6.152,-32.4959 57.988,-44.6953 26.312,-6.1924 64.442,-15.823 84.732,-21.4004 48.464,-13.3211 65.638,-8.3809 106.629,30.67 43.757,41.6855 56.391,47.789 98.914,47.789 31.281,0 37.86,2.8072 63.666,27.166 15.83,14.9416 30.123,27.2436 31.76,27.3379 1.638,0.094 18.477,-12.8997 37.422,-28.875 36.739,-30.9805 88.217,-59.9282 105.988,-59.6015 5.941,0.1093 47.708,-11.4237 92.81498,-25.6289 72.49905,-22.8316 85.61505,-29.3969 113.06605,-56.584 35.036,-34.6985 54.516,-80.2692 88.488,-206.9981 25.747,-96.0442 25.793,-109.8727 0.455,-138.7304 -16.556,-18.8573 -19.433,-27.0539 -16.291,-46.42 3.565,-21.9659 0.152,-27.4092 -51.654,-82.4082 -30.508,-32.3888 -55.469,-61.909 -55.469,-65.5996 0,-3.6905 -16.916,-25.1096 -37.58905,-47.5976 -20.674,-22.4881 -37.588,-47.1715 -37.588,-54.8516 0,-8.2103 20.234,-34.1973 49.10905,-63.0723 47.031,-47.0309 48.405,-49.3057 32.463,-53.7578 -9.155,-2.5568 -42.11805,-4.9554 -73.25005,-5.33 -31.471,-0.3788 -66.36598,-4.8791 -78.59398,-10.1348 -27.63,-11.876 -80.084,-56.9975 -80.084,-68.8887 0,-4.9128 13.07,-21.8064 29.045,-37.543 l 29.047,-28.6132 -23.92,-18.3067 c -13.156,-10.0685 -32.075,-26.7626 -42.041,-37.0995 -9.966,-10.337 -21.567,-18.795 -25.781,-18.795 -4.214,0 -24.424,-17.3078 -44.912,-38.4609 l -37.25,-38.459 -24.344,21.3731 c -13.389,11.7559 -30.208,21.375 -37.373,21.375 -7.165,0 -14.927,3.075 -17.25,6.8339 -7.214,11.6718 -32.55,7.5317 -49.109,-8.0254 -18.676,-17.5448 -20.115,-8.9839 -5.37,31.9454 5.417,15.0356 9.897,30.7291 9.952,34.873 0.06,4.1439 -38.751,23.993 -86.239,44.1093 l -86.34,36.5743 -19.306,43.0293 c -18.049,40.2274 -20.77,43.0231 -41.803,42.9609 -31.077,-0.092 -94.655,-30.7248 -99.107,-47.752 -5.684,-21.7349 -15.655,-15.8932 -15.655,9.1719 0,31.2885 -20.672,48.8985 -57.4,48.8985 -15.898,0 -36.853,-5.3883 -47.123,-12.1172 -16.027998,-10.5017 -18.493998,-16.6818 -18.493998,-46.3457 0,-42.3267 -6.202,-45.3551 -61.254,-29.9082 -34.7630007,9.7539 -46.483001,10.3763 -68.912001,3.6562 -36.187,-10.8419 -81.699001,-54.4342 -81.699001,-78.2519 0,-17.6189 -1.187,-18.1426 -40.987,-18.1426 -37.412,0 -43.348,-2.1338 -68.053,-24.4531 -14.885,-13.4486 -28.951,-30.3974 -31.257,-37.6641 -2.307,-7.2666 -13.905,-18.2336 -25.774,-24.3711 -11.868,-6.1375 -43.125,-29.2952 -69.461,-51.4629 -67.186,-56.5546 -109.428,-75.7594 -177.431,-80.6699 -67.456,-4.871 -90.996,-16.6282 -127.055,-63.4551 -62.461,-81.1116 -70.212,-88.4346 -114.707,-108.3984 -24.452,-10.9706 -59.441,-30.9456 -77.754,-44.3887 -19.066,-13.9957 -28.095,-19.6423 -34.959,-19.5898 z M 1251.2121,7859.6998 c -5.86,0 -17.03,8.1037 -24.82,18.0079 -16.115,20.4869 -19.954,82.8174 -5.963,96.8086 20.53,20.5305 34.22,-2.3565 38.164,-63.8067 2.762,-43.043 1.609,-51.0098 -7.381,-51.0098 z m -544.80803,295.7227 c -5.174,-0.033 -10.749,0.6133 -16.422,2.0371 -13.526,3.3948 -17.668,8.7449 -17.668,22.8281 0,10.1175 3.69,22.087 8.201,26.5977 4.511,4.5107 10.801,8.2012 13.978,8.2012 9.692,0 39.33,-32.8953 39.33,-43.6524 0,-9.6962 -11.898,-15.9122 -27.419,-16.0117 z"
     id="path4266"
     inkscape:connector-curvature="0" />
  <path
     style="fill:#217844"
     d="m -58.799929,6872.8602 c -0.277,0.016 -0.478,0.082 -0.596,0.1993 -1.878,1.8786 0.344,17.4695 4.938,34.6464 6.483,24.2384 6.533,35.2281 0.221,49.0821 -10.013,21.9748 -10.433,47.9803 -1.059,65.4961 9.258,17.2978 14.623,16.6876 33.932,-3.8653 14.2140003,-15.1303 21.63400026,-17.0859 64.838001,-17.0859 45.179,0 50.227,-1.5011 68.237998,-20.3008 14.549,-15.186 17.022,-21.1456 9.82,-23.6484 -56.483998,-19.628 -89.892998,-34.7984 -130.0189987,-59.043 -24.4890003,-14.7963 -46.1530003,-25.7207 -50.3130003,-25.4805 z m 90.770001,233.1875 c -9.253,0.045 -16.127,3.9482 -17.809,12.7754 -1.211,6.3569 7.215,33.0145 18.725,59.2383 11.509,26.2238 20.927,52.6973 20.927,58.832 0,21.0655 -19.646,49.0883 -55.9290007,79.7773 -75.2390003,63.6385 -99.1980013,75.9101 -178.4830013,91.4122 -20.673,4.042 -72.48,47.2503 -65.283,54.4472 2.413,2.4133 28.544,-0.8344 58.068,-7.2168 92.298001,-19.9521 85.929,-20.4851 121.319001,10.1446 35.787,30.974 45.131,34.122 45.131,15.2109 0,-30.0841 54.920001,-62.3086 106.351001,-62.4023 30.945998,-0.056 50.837998,-21.9397 50.837998,-55.9278 0,-42.165 -26.56,-189.3197 -38.249998,-211.9258 -13.389,-25.8915 -45.25,-44.4646 -65.605,-44.3652 z m -174.830002,388.4316 c -2.077,0.072 -3.404,2.7101 -5.42,7.9649 -2.42,6.3057 -2.631,16.0784 -0.467,21.7168 2.164,5.6383 7.202,10.2519 11.197,10.2519 12.868,0 15.875,-21.2263 4.604,-32.498 -5.012,-5.0119 -7.838,-7.5073 -9.914,-7.4356 z m -116.532,13.9239 c -1.206,0.056 -2.38,0.2949 -3.515,0.7304 -22.776,8.7398 -8.689,52.4839 29.851,92.6993 13.601,14.1912 16.236,14.8267 21.614,5.2168 14.302,-25.5563 -23.416,-99.789 -47.95,-98.6465 z"
     id="path4268"
     inkscape:connector-curvature="0" />
  <path
     style="fill:#217844"
     d="m 155.20807,8202.302 c -36.952,-26.7681 -66.386998,-75.1515 -87.849998,-144.4058 -29.766,-96.0401 -37.688,-110.1562 -90.286001,-160.865 l -49.89,-48.098 10.754,-92.0063 c 11.71,-100.1923 9.89,-123.1744 -13.482,-170.224 -8.505,-17.1227 -27.050001,-65.343 -41.211001,-107.1563 -14.16,-41.8134 -32.723,-84.7741 -41.251,-95.4684 l -15.504,-19.4441 -26.446,18.1999 c -25.328,17.4301 -58.323,32.6325 -70.826,32.6325 -13.317,0 -27.381,-22.9382 -27.381,-44.6585 0,-56.8828 -53.906,-148.4784 -116.174,-197.3989 -22.559,-17.7231 -40.993,-35.8642 -40.964,-40.3134 0.03,-4.4492 12.331,-15.1011 27.338,-23.6708 l 27.285,-15.5814 0,-43.6527 c 0,-27.6681 4.744,-54.7213 12.957,-73.8806 7.126,-16.6253 16.527,-48.4038 20.89,-70.6187 4.363,-22.215 11.149,-48.7099 15.082,-58.8777 7.513,-19.4286 95.238,-94.2801 110.495,-94.2801 12.144,0 43.222,33.5789 51.594,55.7456 5.268,13.9468 3.554,28.3184 -7.391,61.9835 -19.422,59.7367 -13.879,88.6316 21.259,110.8131 16.013,10.1088 41.526,39.6358 66.326,76.762 l 40.303001,60.334 49.117,1.9998 49.118001,1.9998 2.116,-29.3373 c 1.838,-25.496 4.352,-29.6104 19.201,-31.4243 20.475,-2.5011 79.822998,-17.5147 124.972998,-31.6152 l 32.709,-10.2151 50.912,48.3612 50.911,48.3613 -28.052,31.6895 c -15.429,17.4292 -32.802,41.5434 -38.605,53.5871 -10.058,20.8719 -9.734,23.1128 6.914,47.8405 9.606,14.2686 42.61,53.6221 73.341,87.4522 88.396,97.3079 123.404,166.3657 133.574,263.4893 5.883,56.1901 -6.473,90.3039 -38.912,107.4295 -12.298,6.4929 -44.183,32.5646 -70.853,57.9371 -26.671,25.3726 -51.762,46.132 -55.757,46.132 -3.996,0 -9.373,-11.533 -11.949,-25.6289 -5.837,-31.945 -21.12,-56.3834 -35.26,-56.3834 -23.157,0 -57.614,-23.4783 -124.861,-85.0777 -76.271998,-69.8675 -111.6089987,-91.8672 -127.0189987,-79.0782 -11.7940003,9.7888 -24.2020003,83.0622 -26.0610003,153.9043 -1.251,47.7047 0.603,57.5315 14.548,77.0827 8.79,12.3243 19.11800026,33.8526 22.9510003,47.8405 5.149,18.7916 26.2640007,44.4308 80.8620007,98.1879 40.641998,40.0153 78.694998,82.0379 84.561998,93.3835 12.032,23.2676 51.931,157.4394 51.931,174.6329 0,18.12 -35.68,13.5702 -66.038,-8.4209 z"
     id="path4270"
     inkscape:connector-curvature="0" />
  <path
     style="fill:#217844"
     d="m -550.36993,6556.1347 c -12.993,0.296 -29.553,10.7376 -52.144,31.3848 -48.032,43.8984 -69.976,48.6909 -127.881,27.9238 -60.616,-21.7392 -79.902,-15.4755 -117.057,38.0176 -18.164,26.1514 -69.357,56.7365 -103.545,61.8633 -25.557,3.8324 -30.59,7.6109 -41.049,30.8047 -7.753,17.1932 -10.65197,35.4791 -8.29297,52.3008 5.70997,40.7077 31.94697,103.462 53.54097,128.0566 18.195,20.7228 19.606,26.1912 18.094,70.1231 -1.635,47.5059 -1.547,47.7594 29.541,84.6054 61.601,73.0112 68.402,97.6821 37.162,134.8086 -20.069,23.8512 -21.726,38.7482 -5.125,46.0547 6.578,2.895 58.014,6.6514 114.301,8.3477 l 102.34,3.0839 64.084,60.6504 c 45.269,42.8426 71.875,62.7468 90.615,67.793 33.338,8.9769 44.704,27.705 33.391,55.0176 -10.964,26.4683 -4.867,39.0855 24.896,51.5215 34.384,14.3663 71.574,7.1353 94.264,-18.3301 20.307,-22.7908 26.243,-24.2021 40.758,-9.6875 10.608,10.6079 14.627,32.8042 21.021,116.1015 6.35,82.7178 23.07,130.5441 122.291,349.8223 35.403,78.239 75.981001,169.4175 90.174001,202.6192 14.193,33.2016 30.386,64.9479 35.985,70.5468 6.435,6.4351 16.366,8.627 26.9960003,5.959 65.8110007,-16.5175 93.6250007,-88.7062 103.8570007,-269.543 l 5.640998,-99.6972 137.551,-138.3828 c 75.652,-76.11 148.182,-155.0031 161.177,-175.3184 12.996,-20.3153 31.67,-43.2615 41.498,-50.9922 20.69,-16.2742 72.019,-36.4228 133.143,-52.2617 l 42.814,-11.0937 33.057,32.5586 c 30.004,29.5524 34.801,31.9494 51.949,25.9472 17.643,-6.175 19.139,-9.7709 22.582,-54.3203 2.029,-26.2392 8.856,-59.3958 15.172,-73.6797 6.316,-14.2839 16.242,-49.0078 22.059,-77.166 13.091,-63.3803 17.197,-69.9976 70.129,-112.9785 23.487,-19.0721 40.808,-37.7457 38.49,-41.4961 -7.77,-12.5721 -101.073,-53.3522 -122.008,-53.3262 -28.619,0.035 -61.401,21.6938 -81.838,54.0684 -24.848,39.3615 -52.232,43.2296 -102.494,14.4726 -40.543,-23.1961 -61.451,-23.1584 -68.842,0.127 -4.863,15.3226 -11.933,16.4995 -32.617,5.4297 -8.108,-4.3394 -26.21,-8.5373 -40.227,-9.3282 -15.224,-0.859 -39.605,-10.4993 -60.556,-23.9433 -29.441,-18.8921 -42.358,-22.764 -80.453,-24.1192 -39.82,-1.4165 -53.781,-5.9968 -113.907,-37.3671 -37.743,-19.6923 -87.731998,-39.8165 -111.286998,-44.8008 -47.922,-10.1407 -128.741001,-49.8951 -152.201001,-74.8672 -8.699001,-9.2593 -15.268001,-24.7093 -15.070001,-35.4453 0.586,-31.8294 11.926001,-107.3486 17.451001,-116.2168 3.158,-5.0695 -3.622,-17.9476 -17.293001,-32.8399 -18.769,-20.4466 -28.894,-25.366 -61.201,-29.7343 -26.269,-3.552 -53.727,-14.0965 -85.43,-32.8067 -25.695,-15.1644 -68.952,-40.6791 -96.125,-56.6992 l -49.404,-29.127 -44.492,8.3946 c -24.471,4.6173 -49.043,6.6494 -54.604,4.5156 -5.56,-2.1338 -14.617,-14.6676 -20.127,-27.8535 -8.332,-19.9429 -17.76,-29.794 -30.754,-29.4981 z m 701.635,1642.7383 c -4.121,-0.2217 -6.043,6.9459 -8.961,26.4004 -5.185,34.5756 0.702,94.34 11.231,114.0137 8.12,15.1728 28.742,16.2494 40.474,2.1133 17.757,-21.3957 -6.749,-114.3032 -36.707,-139.166 -2.476,-2.0554 -4.424,-3.2746 -6.037,-3.3614 z"
     id="path4272"
     inkscape:connector-curvature="0" />
  <path
     style="fill:#440055"
     d="m 106.42807,6659.9098 c -4.293,0.052 -8.468998,7.3471 -16.607998,25.7461 -7.667,17.3326 -18.376,61.067 -23.799,97.1875 -10.85,72.2818 -26.193,106.6192 -75.9780007,170.0508 -24.9720003,31.8171 -34.0450003,38.6953 -51.0450003,38.6953 -28.729,0 -61.751001,-18.2858 -134.354001,-74.3965 -94.775,-73.2469 -98.624,-82.7112 -59.443,-146.1895 13.492,-21.8594 22.762,-44.3557 20.6,-49.9922 -5.311,-13.8398 -46.198,-30.145 -96.489,-38.4785 -39.907,-6.6129 -44.039,-5.8377 -113.381,21.2735 -78.423,30.6621 -104.912,51.6101 -115.988,91.7246 -3.762,13.6263 -14.453,33.8215 -23.758,44.8789 -20.611,24.4948 -32.635,52.5883 -58.771,137.3203 -28.312,91.7858 -121.985,439.5506 -121.985,452.877 0,8.2715 9.063,12.1038 35.881,15.1777 37.571,4.3064 530.32,37.7817 557,37.8437 10.512,0.023 15.379,4.1228 15.379,12.9532 0,14.3776 -105.888,330.0945 -157.642,470.0312 -39.198,105.9854 -58.607,178.4107 -50.037,186.7188 3.335,3.2335 35.987,8.7749 72.56,12.3144 41.733,4.0388 72.276,10.5969 82.014,17.6094 22.036,15.8691 51.993,9.7614 96.246,-19.6211 29.122001,-19.3359 48.072001,-26.3393 82.976001,-30.668 24.8800003,-3.0855 50.338001,-9.7388 56.575001,-14.7851 45.971,-37.1946 342.530998,-342.6296 361.567998,-372.3887 37.729,-58.9805 55.335,-115.3692 70.959,-227.2793 l 14.396,-103.1191 -31.298,-40.6758 c -37.056,-48.1565 -81.516,-122.1806 -123.016,-204.8125 -16.522,-32.8964 -44.111,-76.2955 -61.309,-96.4434 l -31.269,-36.6328 0,-69.7402 c 0,-86.0402 -15.663,-141.9126 -54.301,-193.6992 -15.03,-20.1447 -32.519,-50.7938 -38.865,-68.1114 -6.346,-17.3177 -15.576,-35.9089 -20.512,-41.3125 -2.382,-2.6073 -4.355,-4.0801 -6.306,-4.0566 z m -401.286,1669.6699 -14.679,51.6699 c -8.074,28.4181 -12.829,54.9467 -10.569,58.9532 10.327,18.2998 107.52,-28.261 139.545,-66.8497 16.706,-20.1293 1.186,-29.7143 -60.217,-37.1894 l -54.08,-6.584 z"
     id="path4286"
     inkscape:connector-curvature="0" />
  <path
     style="fill:#440055"
     d="m 730.32507,7964.7947 c -2.753,-2.7527 -5.005,-27.0993 -5.005,-54.1037 0,-74.4244 -19.57,-113.61 -50.763,-101.6405 -8.253,3.1674 -10.746,-0.4846 -10.746,-15.7435 0,-36.6677 -29.615,-47.5495 -61.509,-22.6011 -9.398,7.3506 -19.33,13.4331 -22.073,13.5167 -2.743,0.083 -11.419,-12.4556 -19.28,-27.8648 -19.044,-37.3283 -60.24,-81.1603 -105.721,-112.4839 l -37.158,-25.5917 -59.948,4.3595 c -77.008,5.6001 -180.057,30.8297 -265.680998,65.0472 -37.204,14.8673 -84.5580007,30.3316 -105.232001,34.3651 -134.037001,26.1509 -181.973001,37.2678 -226.519001,52.5318 -88.318,30.2629 -151.346,28.4273 -172.224,-5.016 -5.644,-9.0414 -2.004,-17.0381 17.669,-38.8138 13.628,-15.0845 28.187,-39.1769 32.354,-53.5388 4.167,-14.3619 10.611,-113.7632 14.32,-220.8918 8.368,-241.7004 14.773,-315.6067 29.27,-337.731 18.809,-28.7063 191.561,-103.4095 282.810001,-122.2955 25.6890003,-5.3168 56.878001,-14.927 69.311001,-21.3561 28.76,-14.8726 105.707998,-91.5317 120.405998,-119.9537 6.339,-12.2576 21.092,-25.7983 33.972,-31.1798 23.839,-9.9606 40.429,-24.9887 112.046,-101.494 44.806,-47.8638 96.832,-79.0832 132.003,-79.2118 10.048,-0.037 27.732,7.8953 39.297,17.6267 33.409,28.1117 38.775,-1.8704 -80.565,450.1793 -26.753,101.3357 -46.362,186.4239 -43.576,189.0848 2.785,2.661 139.913,14.1052 304.729,25.4316 164.815,11.3265 300.95698,21.8868 302.53798,23.4673 5.852,5.8523 -162.62498,486.8303 -207.15998,591.4117 -6.908,16.2221 -14.812,27.2425 -17.565,24.4898 z"
     id="path4288"
     inkscape:connector-curvature="0" />
  <path
     style="fill:#440055"
     d="m -699.82993,6887.262 c -9.879,0.1505 -15.351,12.7933 -18.201,40.6172 -1.609,15.7103 -4.51,36.847 -6.447,46.9707 -4.477,23.4002 -4.514,22.8279 1.848,29.1894 2.953,2.9534 7.952,5.3474 11.107,5.3184 13.333,-0.1216 14.509,-4.1991 13.523,-46.8789 -0.895,-38.7761 -0.488,-41.7771 6.735,-49.5059 10.075,-10.7816 9.733,-18.9619 -0.998,-23.8516 -2.772,-1.2627 -5.287,-1.8941 -7.567,-1.8593 z m 218.743,179.6035 c -16.692,-0.014 -31.136,2.0574 -33.909,6.543 -2.257,3.6528 11.401,17.7816 30.352,31.3964 33.743,24.2416 34.455,25.4842 34.455,60.0528 l 0,35.2988 49.549,15.5801 c 66.246,20.8304 171.517,79.5094 211.738,118.0234 39.132,37.4713 44.222,68.2482 15.715,95.0293 -20.554,19.3091 -16.812,27.5352 12.523,27.5352 13.231,0 35.817,8.7321 55.981,21.6426 33.896001,21.7029 91.738001,39.562 128.787002,39.7617 15.178,0.082 27.955,-8.5242 54.674,-36.8223 19.177,-20.3107 41.260998,-40.1277 49.073998,-44.0371 19.255,-9.6344 41.253,4.4478 114.002,72.9727 60.772,57.2435 92.849,77.3902 155.418,97.6191 67.777,21.9127 72.23,14.4254 16.836,-28.3106 -75.845,-58.5139 -133.02,-136.3387 -133.02,-181.0625 0,-26.5944 -16.428,-59.0816 -41.9,-82.8593 -47.778,-44.6006 -148.152998,-99.639 -240.08999874,-131.6504 -30.97100026,-10.7839 -80.91500026,-30.676 -110.98600126,-44.2051 -30.071,-13.529 -61.697,-24.6356 -70.28,-24.6816 -18.412,-0.099 -70.941,25.6129 -123.164,60.2871 l -37.318,24.7793 -26.416,-29.7676 c -14.528,-16.3715 -30.048,-41.8908 -34.488,-56.7109 -4.44,-14.8201 -14.357,-31.3499 -22.039,-36.7305 -8.857,-6.2036 -34.034,-9.666 -55.494,-9.6836 z m 969.664,109.3789 c -8.495,-0.4528 1.067,11.0786 28.728,36.5176 l 32.207,29.6191 -22.808,21.4336 c -59.972,56.3518 -89.94,77.8258 -118.936,85.2227 -8.9,2.2704 -16.727,5.7662 -17.395,7.7675 -1.147,3.443 9.569,8.9691 24.674,12.7247 14.681,3.65 43.248,-0.9806 57.399,-9.3028 34.025,-20.0107 88.053,-85.975 93.293,-113.9062 4.414,-23.5273 -11.186,-42.5759 -48.955,-59.7774 -14.354,-6.537 -23.758,-10.0616 -28.207,-10.2988 z m 163.328,180.5078 c -1.366,0.1152 -1.82,1.7744 -2.215,4.4766 -2.217,15.167 5.864,34.175 17.56,41.3066 12.671,7.7254 33.131,9.0344 33.131,2.1192 0,-2.5109 -11.13,-15.1968 -24.732,-28.1915 -15.202,-14.5224 -21.136,-19.9307 -23.744,-19.7109 z m 87.121,55.8848 c -8.099,0 -14.725,0.557 -14.725,1.2383 0,0.6813 4.814,7.217 10.697,14.5234 13.976,17.3552 23.307,37.9154 23.401,51.5664 0.04,6.0197 1.86,14.8613 4.041,19.6484 7.687,16.8716 17.99,8.4873 12.398,-10.0898 -1.697,-5.6383 -4.343,-23.2033 -5.882,-39.0332 -3.226,-33.1726 -6.927,-37.8535 -29.93,-37.8535 z m 105.16,52.209 c -1.782,-0.068 -3.336,0.7435 -5.252,2.3339 -6.85,5.685 -6.731,15.2804 0.273,22.2852 3.074,3.0732 9.561,5.0908 14.522,4.5156 12.375,-1.435 12.224,-14.9575 -0.272,-24.2871 -4.308,-3.2169 -6.979,-4.76 -9.271,-4.8476 z m 76.56098,85.1074 c -1.614,-0.031 -3.488,0.2478 -5.823,0.7148 -5.73998,1.148 -15.76198,5.3793 -22.27098,9.4024 l -11.836,7.3144 15.683,7.5586 c 8.627,4.1576 23.51498,14.883 33.08398,23.834 12.368,11.5685 18.458,15.2166 21.059,12.6152 4.334,-4.3344 -4.161,-29.1026 -17.021,-49.6269 -5.546,-8.8511 -8.036,-11.7196 -12.875,-11.8125 z"
     id="path4290"
     inkscape:connector-curvature="0" />
  <path
     style="fill:#440055"
     d="m 321.51107,6346.0537 c -14.588,0.2358 -28.133,26.9312 -37.841,78.4043 -13.218,70.0787 -9.868,87.8689 24.722,131.3125 24.925,31.3038 27.371,37.9618 27.371,74.4902 0,22.0624 2.771,40.1133 6.159,40.1133 3.387,0 12.511,-10.7638 20.273,-23.9199 13.569,-22.9977 15.653,-23.92 54.043,-23.92 23.451,0 45.333,-3.951 53.023,-9.5742 12.255,-8.9606 11.312,-10.0555 -14.724,-17.0664 -34.944,-9.4093 -81.1,-42.4462 -97.903,-70.0762 -11.684,-19.2129 -11.971,-23.6036 -3.189,-48.4941 12.562,-35.6048 12.193,-60.0346 -1.418,-94.0527 -10.064,-25.152 -20.534,-37.3782 -30.516,-37.2168 z m 226.475,347.7265 c -8.428,0.2952 -11.072,8.6933 -9.184,26.9883 1.659,16.0668 0.885,20.0475 -5.144,26.4844 -7.403,7.9026 -14.387,23.3002 -14.387,31.7187 0,7.4666 5.418,5.865 11.486,-3.3964 11.649,-17.7775 30.579,-32.7938 44.059,-34.9493 7.361,-1.1771 14.19,-4.2408 15.176,-6.8086 3.554,-9.263 -16.805,-32.5845 -33.539,-38.4179 -3.294,-1.1483 -6.107,-1.7018 -8.467,-1.6192 z m -288.602,76.3477 c -6.208,-0.3732 -16.831,8.5361 -31.683,26.707 -28.968,35.44 -43.315,58.4239 -43.315,69.3965 0,15.2839 14.928,13.4642 39.778,-4.8496 23.987,-17.6781 38.442,-41.7302 41.213,-68.5723 1.527,-14.7962 -0.515,-22.3523 -5.993,-22.6816 z m 343.336,83.2676 c -7.994,-0.081 -19.58,9.4993 -40.601,27.0644 -33.368,27.8814 -48.106,35.5314 -75.797,39.3399 -33.261,4.5745 -48.447,17.1152 -20.727,17.1152 18.454,0 64.67,42.7997 75.721,70.125 4.925,12.1758 12.204,24.3966 16.176,27.1582 10.412,7.2386 16.173,6.4899 41.123,-5.3496 38.155,-18.1058 47.807,-63.5056 27.635,-129.9922 -9.464,-31.1919 -13.882,-45.363 -23.53,-45.4609 z m -425.123,168.6269 c -23.12,0.074 -51.143,16.1097 -91.288998,49.6074 -22.553,18.8187 -50.855,39.2661 -62.894,45.4395 -12.039,6.1733 -31.3460007,24.9682 -42.903001,41.7657 -11.557,16.7974 -32.462,38.9675 -46.455,49.2675 -13.992,10.3 -41.403001,33.4584 -60.912001,51.4629 -20.828,19.2218 -41.988,32.7731 -51.258,32.8281 -39.47,0.2334 -46.541,6.3738 -46.541,40.4102 0,51.3893 36.797,184.2333 53.971,194.8477 3.486,2.1543 45.82,9.913 94.076001,17.2421 48.256,7.3291 100.041001,17.6527 115.076001,22.9415 15.036,5.2888 31.95,8.0377 37.588,6.1074 28.326998,-9.6975 53.713998,-50.6487 91.980998,-148.3711 10.303,-26.3123 27.283,-57.0671 37.734,-68.3438 19.173,-20.6878 34.311,-45.4671 34.311,-56.164 0,-3.1931 -10.764,-22.5132 -23.92,-42.9336 -29.943,-46.4757 -30.372,-69.3342 -2.123,-113.1387 27.122,-42.0577 29.337,-76.8143 6.445,-101.1817 -13.543,-14.4163 -27.067,-21.8374 -42.887,-21.7871 z m -1101.781,65.7324 c -8.39,0.084 -11.244,2.4748 -11.244,7.8419 0,14.1757 35.821,62.7925 82.277,111.6679 21.643,22.7697 56.681,68.2618 77.862,101.0938 21.18,32.8319 51.484,77.3203 67.343,98.8633 15.859,21.5431 45.652,71.3905 66.205,110.7715 42.4,81.2385 104.554,151.3428 144.303,162.7636 33.637,9.6647 37.176,9.3348 55.035,-5.1425 13.912,-11.2768 16.119,-19.0459 16.02,-56.3829 -0.134,-50.2459 -15.438,-85.1356 -60.963,-138.9863 -36.071,-42.6678 -79.027,-106.481 -79.027,-117.3984 0,-4.5272 -18.916,-24.5579 -42.036,-44.5137 -23.119,-19.9558 -82.726,-73.4346 -132.46,-118.8418 -93.036,-84.9412 -122.614,-104.3713 -168.19,-110.4844 -6.353,-0.8521 -11.311,-1.2901 -15.125,-1.252 z m 1491.379,226.6016 c -3.486,0 -8.282,0.7907 -14.441,2.2852 -12.217,2.9642 -60.655,6.0178 -107.641,6.7851 -46.986,0.7676 -88.782,1.7669 -92.877,2.2208 -12.002,1.3302 -23.508,33.6126 -29.777,83.541 -3.458,27.5334 -14.98,66.3447 -28.231,95.0937 l -22.388,48.5723 12.148,49.125 c 6.683,27.0186 13.64,54.6828 15.461,61.4746 1.877,7.0045 8.233,11.4 14.685,10.1562 9.507,-1.8324 11.008,-9.4971 9.129,-46.623 -1.884,-37.2353 0.132,-47.4541 12.455,-63.1211 21.593,-27.4508 36.029,-23.569 62.342,16.7637 12.723,19.5012 26.975,36.6724 31.674,38.1582 12.286,3.8853 11.118,-54.2268 -1.707,-84.9219 -13.504,-32.3206 -13.499,-32.362 10.25,-59.4102 11.277,-12.8435 20.506,-24.4839 20.516,-25.8671 0.01,-1.3832 -18.051,-1.4935 -40.129,-0.2442 -38.647,2.1868 -41.075,1.3144 -65.104,-23.4277 -13.728,-14.1351 -23.876,-28.9982 -22.551,-33.0274 1.325,-4.0292 15.477,-17.3207 31.45,-29.5371 33.52,-25.6378 61.849,-28.4694 112.414,-11.2402 39.039,13.3019 74.971,8.186 89.644,-12.7637 11.787,-16.8286 13.135,-23.987 2.678,-23.9922 z m -936.514,430.875 c -6.858,0.06 -12.644,0.8188 -18.16,2.1817 -59.406,14.6783 -8.66,41.319 102.385,53.7519 46.398,5.1948 89.581,11.4988 95.963,14.0078 6.381,2.509 44.825,10.1581 85.429,16.9981 40.605001,6.84 90.560001,12.7231 111.0120013,13.0742 34.1030007,0.5854 36.0880007,-0.1943 23.9220007,-9.3965 -7.296,-5.5188 -16.849,-10.1305 -21.228,-10.25 -4.3790007,-0.1195 -31.619001,-12.7516 -60.532001,-28.0703 -51.641001,-27.3606 -53.446001,-27.7688 -102.252001,-23.1953 -41.398,3.8793 -63.014,1.5045 -129.63,-14.2363 -44.861,-10.6 -69.382,-15.0177 -86.909,-14.8653 z m 1006.483,125.2188 -32.463,1.1074 c -24.376,0.8324 -36.72,3.0043 -49.549,8.7129 -36.63,16.2993 -63.409,40.8633 -58.498,53.6621 2.619,6.8238 26.927,6.4218 40.727,-0.6738 6.014,-3.0927 17.995,-11.9482 26.623,-19.6797 8.627,-7.7315 28.618,-20.5991 44.423,-28.5938 l 28.737,-14.5351 z"
     id="path4292"
     inkscape:connector-curvature="0" />
  <rect
     style="fill:#ff6600"
     id="rect4175"
     width="106.875"
     height="106.875"
     x="-47.914829"
     y="7281.4346" />
</svg>
